<?xml version="1.0" encoding="UTF-8" standalone="no"?>
<svg id="svg4180" xmlns:rdf="http://www.w3.org/1999/02/22-rdf-syntax-ns#" xmlns="http://www.w3.org/2000/svg" height="1944" viewBox="0 0 2138 1944" width="2138" version="1.1" xmlns:cc="http://creativecommons.org/ns#" xmlns:dc="http://purl.org/dc/elements/1.1/">
<path id="path4190" d="m1489.4 1942.6c-3.0256-2.2123-0.7805-5.8239 4.8585-7.8157 0.4317-0.1525 2.276-5.447 4.0984-11.766 7.2029-24.973 13.454-28.714 26.96-16.136 9.981 9.2948 12.748 15.179 9.0574 19.258-6.2091 6.861-40.793 19.518-44.975 16.46zm27.59-16.772c11.782-4.9596 11.463-4.0824 4.0583-11.145-8.9089-8.4977-10.836-7.82-14.051 4.9413-3.1333 12.436-3.8114 12.015 9.9931 6.2038zm478.29 11.547c-0.4117-1.0726 0.2157-2.3438 1.7813-3.6096 5.8248-4.7093 22.356-20.481 25.885-24.696l3.8661-4.6177-18.993-15.46c-10.446-8.5031-19.316-15.579-19.711-15.725-1.4926-0.5504-33.409 38.047-35.211 42.581-1.2382 3.116-6.2667 2.7565-6.7279-0.481-0.4212-2.9567 13.815-22.808 29.137-40.63 6.8067-7.9171 7.145-6.8029-4.9839-16.415-8.5835-6.8023-10.371-9.3497-8.3052-11.838 2.1289-2.5651 4.2638-1.5984 14.46 6.548 11.591 9.2605 10.561 8.912 14.035 4.75 1.492-1.7875 6.257-6.9783 10.589-11.535 9.6032-10.102 10.078-7.9201-4.1676-19.158-14.996-11.83-15.996-12.892-14.881-15.807 1.5087-3.9448 4.6697-2.5333 17.724 7.9141 6.9853 5.5903 13.304 10.629 14.041 11.197 0.9998 0.7708 2.0156 0.2653 4-1.9904 15.934-18.112 17.085-19.046 19.96-16.171 2.3544 2.3544 1.082 4.7138-7.7885 14.442l-8.9885 9.8578 3.7385 3.4045c7.9123 7.2053 18.729 17.832 25.161 24.719l6.7067 7.1814 3.9777-5.1526c3.4203-4.4305 9.9348-14.796 12.351-19.653 1.0403-2.0908 4.462-2.4039 6.0013-0.5492 1.8268 2.2012 0.217 5.6492-9.291 19.901l-7.9068 11.852 1.8693 2.3588c21.925 27.666 25.681 34.496 19.369 35.227-2.1674 0.251-3.8801-1.5726-12.873-13.706-14.623-19.731-12.346-18.986-21.99-7.1916l-8.1379 9.9529 5.2502 4.3816c2.8877 2.41 8.7378 7.2687 13 10.797 7.6396 6.3241 8.9108 8.4155 6.55 10.776-2.1258 2.1258-3.4802 1.374-16.9-9.3803l-13.203-10.58-9.5985 9.417c-16.904 16.584-27.63 22.735-29.797 17.088zm51.404-54.081 4.5147-5.2369-5.1811-5.9806c-25.701-29.667-28.96-31.057-41.438-17.678-12.939 13.873-14.03 10.255 8.694 28.835l19.204 15.702 4.8456-5.2021c2.6652-2.8612 6.8773-7.5588 9.3603-10.439zm-1345.5 52.6c-2.1186-2.1186-1.2912-10.167 2.3-22.371 4.1402-14.07 4.108-13.687 1.2558-14.942-2.8303-1.2449-3.3436-3.7565-1.2048-5.8953 3.9489-3.9489 35.022 17.877 37.071 26.038 1.9529 7.7808-33.409 23.183-39.422 17.17zm23.577-13.319c4.0024-1.5502 7.1266-3.3051 6.9425-3.8998-0.41344-1.3361-16.788-13.846-17.367-13.268-0.59166 0.5917-6.3528 20.923-6.3528 22.42 0 0.8994 1.2978 0.736 4.75-0.5981 2.6125-1.0096 8.0247-3.1039 12.027-4.654zm309.86 7.3301c-3.9664-6.1544-7.3453-29.758-8.3127-58.07-0.4728-13.834-0.9933-19.051-1.9826-19.872-1.5701-1.3031-1.7101-3.2052-0.4145-5.6321 0.5099-0.955 1.1707-2.5239 1.4686-3.4864 0.8958-2.8945 6.4168-2.3457 7.1848 0.7142 0.7119 2.8364 0.4074 2.7231 14.92 5.5517 60.432 11.779 67.164 20.026 34.783 42.608-19.688 13.73-30.696 23.682-38.224 34.557-4.182 6.0416-7.1352 7.1795-9.4224 3.6306zm36.467-39.553c28.414-20.396 28.037-19.323 8.8965-25.294-10.126-3.1586-44.936-11.122-45.93-10.508-0.9939 0.6142 1.5364 41.314 3.5918 57.774l0.5908 4.7309 7.2272-6.7494c3.9749-3.7122 15.506-12.692 25.624-19.954zm387.2 39.08c-1.7762-4.6288 27.074-80.122 37.471-98.053 5.8237-10.043 5.328-10.3 24.554 12.715 24.539 29.374 67.318 69.502 72.128 67.657 2.0041-0.7691 6.8498-10.633 15.912-32.391 25.501-61.231 34.112-65.713 54.722-28.486 34.147 61.676 36.269 61.832 84.914 6.2208 3.575-4.087 8.75-9.922 11.5-12.967 2.75-3.0448 10.511-11.895 17.247-19.668 19.829-22.88 18.716-22.888 27.306 0.1915 8.7154 23.416 22.944 48.89 34.016 60.902 4.7388 5.141 5.1019 8.8453 0.9151 9.3343-6.8101 0.7954-16.947-15.408-36.468-58.294-10.556-23.189-9.2013-21.145-12.163-18.363-1.3614 1.2789-7.7354 8.8202-14.164 16.758-39.691 49.007-54.211 64.538-65.89 70.477-13.689 6.9607-30.711-8.5278-53.164-48.373-10.342-18.354-11.986-21-13.043-21-2.7728 0-17.67 23.667-26.201 41.624-22.157 46.641-20.352 44.053-28.939 41.48-13.368-4.0053-47.02-36.059-79.898-76.104-2.9352-3.575-5.6107-6.6104-5.9457-6.7454-1.0978-0.4422-28.29 63.448-33.635 79.028-5.4094 15.768-8.8542 20.101-11.174 14.055zm167.98-1.9898c-1.9634-0.7958-2.8255-7.4698-1.1314-8.7584 0.7882-0.5994 2.268-3.3399 3.2886-6.0899 11.427-30.791 23.937-34.283 35.232-9.8357 7.7649 16.806 0.6147 23.336-25.554 23.336-3.2997 0-6.2776 0.45-6.6175 1-0.6418 1.0385-3.1092 1.2032-5.2183 0.3483zm28.899-10.972c5.4293-1.0234 5.266-2.492-1.4137-12.712-3.447-5.274-6.7172-9.483-7.2672-9.3532-1.0332 0.2437-9.7916 17.377-11.01 21.537l-0.6875 2.3479 8.8485-0.6568c4.8667-0.3613 10.055-0.8844 11.529-1.1623zm88.819 2.1234c-1.1081-1.3352-1.053-2.1664 0.3375-5.0822 0.9143-1.9172 1.6623-4.1081 1.6623-4.8685 0-0.7605 1.0619-2.2077 2.3598-3.2161s5.7428-6.3334 9.8777-11.833c21.741-28.919 31.959-33.102 35.218-14.417 0.8099 4.6444 2.6756 12.488 4.1459 17.431 5.1096 17.176 4.981 16.507 3.37 17.526-2.2987 1.4538-9.1524 1.1444-26.513-1.1968-18.548-2.5014-20.226-2.2912-22.958 2.8753-2.1978 4.1566-5.3798 5.3372-7.4998 2.7827zm48.691-12.25c-0.298-0.9625-1.6929-4.9459-3.0998-8.852-1.4069-3.9062-2.9885-10.142-3.5146-13.856-1.1886-8.3935-1.2114-8.4137-5.8631-5.1901-5.847 4.052-20.214 20.806-20.214 23.572 0 0.4498 2.5875 1.1249 5.75 1.5002s9.125 1.5253 13.25 2.5556c10.075 2.5164 14.413 2.602 13.692 0.2704zm-1188.7 8.7c-3.6969-2.2357-8.4406-6.3873-21.5-18.816-8.1954-7.7998-19.577-17.903-29.712-26.375-5.5896-4.6723-5.7744-4.7428-8.6009-3.2812-3.0289 1.5663-7.1868 0.075-7.1868-2.5778 0-1.9757 7.9261-9.0679 9.4715-8.4749 0.83029 0.3186 13.111-5.3605 27.811-12.861 52.873-26.977 55.891-26.035 49.69 15.51-8.6175 57.729-10.359 62.689-19.972 56.876zm4.9231-12.626c2.1361-8.0089 8.8319-67.828 7.717-68.943-0.89692-0.8969-58.238 25.095-60.912 27.61-0.42434 0.3992 3.1757 3.8207 8 7.6033 8.0136 6.2832 29.586 24.608 39.659 33.687 2.262 2.039 4.208 3.7265 4.3243 3.75 0.1163 0.023 0.66154-1.6449 1.2116-3.7074zm-421.55-18.5c-14.06-14.5-29.64-37.6-80.71-119.8-14.841-23.9-28.711-45-35.363-53.9-1.813-2.4-3.297-5.3-3.297-6.4 0-8.6345 47.181-52.022 127.44-117.2 5.4186-4.4 13.292-10.925 17.495-14.5 4.2038-3.575 9.6187-8.1078 12.033-10.073l4.3898-3.5729-1.7405-6.2033c-2.3314-8.3088-1.9421-9.035 8.1503-15.204 24.895-15.217 34.64-18.13 45.303-13.544 1.3715 0.5899 1.4782-0.01 0.82301-4.6124-0.41408-2.9096-0.7955-9.5652-0.8476-14.79-0.0521-5.225-0.97517-18.05-2.0513-28.5-2.5148-24.421-2.6004-34.757-0.30673-37.05 4.6624-4.6624 42.065 3.2777 49.838 10.58 2.9636 2.7841 19.472-21.535 23.101-34.03 3.4873-12.009 4.7483-12.518 14.008-5.6594 7.0432 5.2171 26.888 25.597 27.837 28.588 1.1618 3.6606-2.984 10.166-13.78 21.624-5.6734 6.0212-13.848 15.898-18.165 21.948-4.3173 6.05-9.1662 12.688-10.775 14.75-3.867 4.9566-2.8362 4.731 5.1201-1.1204 26.23-19.3 72.74-50.1 75.6-50.1 5.9476 0 15.914 13.122 15.886 20.916-0.033 9.174-5.3766 13.943-49.768 44.421-10.945 7.5145-19.603 13.663-19.239 13.663 0.36379 0 7.2939-3.8927 15.4-8.6506 48.156-28.264 65.271-34.225 69.074-24.06 7.2934 19.494 4.675 23.67-23.294 37.156-28.022 13.511-59.108 31.886-92.541 54.701-20.249 13.818-19.329 13.022-17.672 15.287 1.3083 1.7892 1.7327 1.6064 8.2757-3.5651 47.31-37.4 88.24-59.9 109.05-59.9 10.622 0 14.959 4.147 25.207 24.099l4.9304 9.5993 13.851-12.445c41.419-37.215 55.601-45.057 64.816-35.842 10.805 10.805 6.694 18.567-22.175 41.862-20.709 16.711-22.288 18.275-19.375 19.2 5.4384 1.726-1.1068 30.879-8.721 38.845l-2.6935 2.8179 8.5-3.6758c24.013-10.384 27.216-10.566 31.541-1.7881 7.5766 15.377 7.2426 16.842-5.8893 25.826-9.2809 6.3495-9.3104 6.3323 5.0097 2.9179 46.195-11.014 56.963-11.006 59.805 0.044 4.9505 19.244-2.1175 26.652-28.731 30.114-6.7295 0.8754-19.686 3.1292-28.791 5.0086-9.1057 1.8793-17.297 3.417-18.203 3.417-0.98717 0-2.433 1.7758-3.6074 4.4308-3.5591 8.046-11.76 12.619-40.134 22.379-13.619 4.6847-40.9 15.958-42.804 17.689-0.16739 0.1521 10.633 0.2694 24 0.2607 48.068-0.031 55.069 3.4684 51.807 25.896-3.5322 24.284-3.6824 24.393-21.44 15.474-14.104-7.0834-27.339-11.608-40.005-13.674-4.9821-0.8129-10.408-1.6997-12.058-1.9707l-3-0.4928 3.2207 2.5534c1.7714 1.4044 11.591 8.6036 21.822 15.998 46.663 33.728 50.353 38.576 42.318 55.6-7.6891 16.291-7.3117 16.436-40.026-15.394-29.28-28.5-28.84-28.2-28.84-24.4 0 2.8762-2.0816 5.3028-7.716 8.9947-2.0812 1.3637-8.284 5.6474-13.784 9.5192-22.09 15.551-30.691 19.991-36.095 18.635-1.5212-0.3818-6.5796 1.1125-14.616 4.3175-20.469 8.1636-46.571 17.332-81.289 28.554-45.397 14.674-78.066 25.739-88.513 29.98-1.0057 0.4083-3.559-1.4866-7.6156-5.6518zm30.63-11.1c14.025-4.7083 41.7-13.819 61.5-20.246 41.761-13.555 84.41-28.811 89.722-32.095 0.41678-0.2576-0.62738-2.807-2.3204-5.6655-1.693-2.8584-6.8875-13.072-11.543-22.697-20.328-42.024-30.243-60.491-52.347-97.5-35.767-59.884-56.581-97.257-65.44-117.5-4.4956-10.272-4.933-10.782-7.2574-8.4566-0.99786 0.9982-18.014 15.312-37.814 31.809s-36.225 30.254-36.5 30.571c-0.275 0.3171-4.775 4.1766-10 8.5766-39.359 33.144-67.06 57.875-69.103 61.693-0.84626 1.5812-0.66083 2.4434 0.89289 4.1513 1.0785 1.1857 5.0182 6.6557 8.7547 12.156 3.7366 5.5 9.2905 13.6 12.342 18 12.917 18.625 51.715 77.737 63.01 96 3.7414 6.05 9.6011 15.5 13.021 21 3.4204 5.5 8.3257 14.358 10.901 19.685 2.575 5.3267 5.1318 9.5486 5.6818 9.3819s12.475-4.1554 26.5-8.8637zm19.499-47.65c-63.572-16.677-107.92-116.15-64.905-145.58 18.321-12.532 54.724-14.191 73.146-3.3336 17.858 10.525 45.26 52.832 45.26 69.88 0 0.9853 1.5663 3.6663 3.4807 5.9577 25.264 30.239-16.433 83.713-56.981 73.076zm21.445-7.5715c15.462-2.8979 32.561-23.835 33.818-41.411l0.47919-6.6973-3.5758 0.4175c-4.1133 0.4802-4.1736 0.3465-5.0917-11.291-4.3105-54.634-46.115-90.104-92.399-78.396-65.914 16.673-1.0686 150.09 66.769 137.38zm239.17 9.2966c4.7601-9.3305 4.4686-11.468-2.4409-17.898-7.972-7.4192-67.738-51.662-67.108-49.678 3.2471 10.231 5.5601 12.968 35.936 42.523 33.834 32.919 30.766 30.633 33.613 25.054zm-105.34-12.5c3.868-2.6125 13.875-9.676 22.239-15.697l15.206-10.947-0.4574-4.058c-1.37-12.1-28.26-59.1-73.61-128.5-34.44-52.7-50.45-76.3-52.18-76.7-1.28-0.4-1.97-1.4-1.97-3 0-1.341-1.8473-5.1585-4.105-8.4832-3.1481-4.6358-3.9777-6.6818-3.5586-8.777 0.34007-1.7003-0.12522-3.834-1.2321-5.6501-1.92-3.1-17.89-23.4-18.46-23.4-2.94 0-40.64 17.8-40.64 19.2 0 0.4276 6.6808 13.95 14.846 30.049 15.674 30.903 22.564 43.389 60.304 109.27 36.385 63.518 45.261 80.144 61.306 114.83 5.1777 11.194 6.3904 13.065 9.4901 14.641 5.0094 2.5464 5.024 2.5433 12.825-2.7255zm112.59-48c0.2712-0.9625 0.992-5.125 1.6018-9.25 0.60977-4.125 1.3252-8.891 1.5898-10.591 1.2114-7.7829-21.002-9.7691-76.21-6.8143-18.805 1.0064-18.838 4.8868-0.0429 4.9329 16.483 0.04 28.962 3.7718 58.703 17.554 14.353 6.6512 13.711 6.4648 14.358 4.1687zm-70.36-43c15.816-8.4099 31.448-15.037 51.258-21.731 25.369-8.5718 30.58-11.743 26.31-16.013-1.8357-1.8357-1.8615-2.0093-0.63814-4.2951 1.853-3.4624-0.1804-4.5077-6.0676-3.1189-14.649 3.4556-56.918 18.738-73.363 26.524-10.623 5.0295-22.654 9.4648-25.675 9.4648-2.511 0-2.5212-0.03 3.7837 11.105l5.6086 9.9056 4.6414-3.3951c2.5528-1.8673 8.9164-5.6682 14.141-8.4466zm-16.28-23.471c5.0711-2.6186 14.957-7.0338 21.969-9.8114 19.958-7.9062 46.616-23.117 84.561-48.251 7.5625-5.0092 13.723-9.5638 13.691-10.121-0.2521-4.2993-4.6752-12.982-6.4522-12.666-5.4862 0.9752-82.218 39.1-129.1 64.144-15.027 8.0274-14.235 6.0545-7.1186 17.735l6.1622 10.114 3.5329-3.1907c1.9431-1.7548 7.682-5.3332 12.753-7.9519zm-20.339-22.571c17.145-9.7232 36.859-20.284 64.876-34.755 17.867-9.2286 23.191-12.369 20.243-11.94-2.2 0.32-12.033 1.0332-21.851 1.5848l-17.851 1.003-14.149 10.644c-12.614 9.4892-21.297 16.738-34.144 28.505-2.2031 2.0178-5.6171 4.9458-7.5868 6.5065-3.0042 2.3805-4.2231 5.3246-2.2045 5.3246 0.30124 0 6.0012-3.0927 12.667-6.8728zm135.62-2.7c4.675-0.855 17.275-1.9173 28-2.3607 27.673-1.144 30.989-3.0505 30.996-17.823 0.004-6.994-0.0813-7.25-2.4044-7.25-2.9497 0-54.297 9.2615-66.851 12.058-4.997 1.1131-9.7262 1.7779-10.509 1.4773-1.1-0.4-23.23 11.8-23.23 12.9 0 0.1331 3.9375-0.5631 8.75-1.547 13.871-2.836 17.251-2.5421 20.177 1.7546 1.857 2.7265 2.914 3.4281 4.5 2.9874 1.1401-0.3168 5.8979-1.2756 10.573-2.1306zm-115.22-32.7c5.1016-3.859 9.0973-7.1947 8.8794-7.4127-0.73012-0.7301-65.278 9.9683-66.298 10.988-0.12684 0.1268 4.0506 6.8374 9.2831 14.912l9.5137 14.682 14.673-13.077c8.0703-7.1922 18.847-16.234 23.949-20.093zm-35.29-8.8008c11.542-2.2305 28.867-4.9697 38.5-6.087s18.94-2.6398 20.682-3.3834c2.4143-1.0304 3.8562-1.0918 6.0649-0.2581 2.0698 0.7813 8.0307 0.8065 20.863 0.088 26.57-1.4869 29.925-3.5909 34.972-21.937 3.5691-12.972 3.2846-15.646-1.1549-10.856-2.8012 3.0225-3.8111 3.1013-6.4124 0.5-1.1-1.1-2.7217-2-3.6038-2-3.9143 0-137.49 27.326-142.05 29.059-1.3613 0.5175-3.5708 0.941-4.91 0.941-3.2256 0-3.3775-0.3992 4.153 10.911l6.5879 9.8947 2.6621-1.4084c1.4641-0.7747 12.106-3.2335 23.648-5.4641zm-41.05-19.9c0.16123 0 14.866-5.559 32.677-12.353 46.876-17.882 51.3-19.306 73.195-23.574 24.626-4.7999 23.406-2.4462 11.671-22.523-8.5788-14.677-12.143-15.38-33.284-6.5619-18.624 7.7681-90.698 54.744-90.698 59.114 0 2.223 5.4181 9.3906 5.7816 7.6484 0.2008-0.9625 0.49701-1.75 0.65824-1.75zm107.72-26.08c18.148-3.6476 23.365-4.9199 20.17-4.9199-2.3619 0-41.359 8.0904-43.488 9.022-2.7676 1.2112-5.5889 1.7076 23.318-4.1021zm-101.16-14.8c34.109-22.854 68.668-43.018 87.5-51.055 23.122-9.8671 23.637-10.456 19.969-22.806l-1.5308-5.1547-5.2192 2.0561c-11.595 4.5678-51.511 27.702-102.22 59.243-4.95 3.079-14.503 8.8717-21.229 12.873-14.217 8.4572-13.492 6.9633-7.6472 15.753l4.6242 6.9541 5.6258-4.0739c3.0942-2.2406 12.151-8.4458 20.126-13.789zm142.5 8.2514 9-0.6578 4.5-6.0253c4.7896-6.4132 13.769-13.753 26-21.252 19.585-12.009 24.489-18.68 18.927-25.75-4.1496-5.2755-14.867 2.1652-59.427 41.257-17.742 15.565-16.798 14.485-12 13.722 2.2-0.3499 8.05-0.9322 13-1.2941zm-163.5-30.8c10.845-8.6631 20.12-15.588 36.611-27.334 3.911-2.7857 21.011-14.379 38-25.763 40.045-26.833 40.284-27.086 34.097-36.064-5.4061-7.8448-4.3036-8.123-24.772 6.2509-10.14 7.121-26.762 18.502-36.937 25.292-33.189 22.147-73.656 51.032-75.362 53.792-0.28174 0.4559 1.8013 4.9247 4.629 9.9306l5.1412 9.1016 3.5461-3.0102c1.9504-1.6556 8.7211-7.144 15.046-12.196zm-11.79-26.1c6.9486-4.95 12.838-9.7392 13.089-10.643 0.90449-3.2672 32.472-45.492 43.82-58.612l11.622-13.438-12.117-11.809-12.117-11.809-1.3273 4.5521c-1.5925 5.4615-2.7492 7.3751-10.734 17.759-8.1335 10.577-13.621 19.272-22.087 35-12.797 23.772-15.138 28.9-19.402 42.5-2.328 7.425-4.4677 14.124-4.7548 14.886-0.76612 2.0347 0.15671 1.4823 14.01-8.3864zm-18.715-12.04c3.0647-5.2074 7.151-14.004 9.0807-19.548 5.3148-15.269 9.2014-24.758 12.96-31.643l3.4019-6.2306-5.2204-1.5169c-34.982-10.164-33.422-11.161-30.858 19.72 1.1994 14.442 2.1771 30.533 2.1726 35.758-0.0144 16.738 0.51936 16.956 8.4625 3.4599zm528 362.1c-89.767-17.536-144.77-197.87-83.403-273.43l5.1599-6.3529-0.68874-7.6471c-4.339-48.176-17.045-77.706-37.316-86.724-18.073-8.0404-18.776-9.0712-18.704-27.423 0.12514-32.098 22.133-37.586 49.418-12.325l7.2652 6.7265 2.08-2.951c15.417-21.874 35.613-20.16 49.223 4.1781 9.6767 17.304 6.2949 25.317-13.931 33.01-19.791 7.5276-19.76 11.653 0.52914 70.537l6.0903 17.675 7.6381 0.6376c52.501 4.3826 81.511 22.282 129.68 80.012 78.038 93.532 77.906 136.68-0.53956 176.45-47.395 24.03-78.292 32.358-102.5 27.629zm36.859-9.7007c18.938-5.0233 63.742-24.648 80.084-35.077 54.314-34.662 49.053-70.619-23.016-157.3-47.761-57.446-66.242-68.142-123.43-71.435-10.175-0.5858-22.1-1.3005-26.5-1.5882l-8-0.5232-4.8589 4.023c-2.6724 2.2126-5.8224 4.0238-7 4.0248-4.9527 0-16.127 24.11-20.04 43.231-23.518 114.92 51.493 236.2 132.76 214.65zm93.89-75.6c-3.6901-1.489 1.3094-11.338 5.7553-11.338 2.7765 0 4.3646 3.421 2.9014 6.25-2.6508 5.1254-5.0576 6.54-8.6567 5.0877zm-52.794-3.4087c-1.0187-1.6483 0.46872-9.6217 2.0378-10.924 4.4861-3.7231 8.1863 2.4454 5.5796 9.3015-1.077 2.8327-6.1957 3.923-7.6175 1.6225zm6.7939-66.591c-2.8938-1.1677-0.86611-11.402 2.6297-13.273 4.667-2.4977 6.8068 1.1471 4.5596 7.7662-1.9456 5.7308-3.5635 6.9701-7.1893 5.5071zm-72.05-14.5c-1.4173-1.4173-1.5491-4.1402-0.31763-6.5636 0.48531-0.955 1.2836-3.0864 1.7741-4.7364 1.6099-5.4161 6.7632-4.3298 7.1156 1.5 0.45795 7.5762-4.7928 13.579-8.572 9.8zm-2.6286-58.371c-2.1424-2.1424-1.9926-3.1876 1.0232-7.1415 3.3806-4.4321 7.722-4.3914 8.2329 0.077 0.61065 5.3416-5.9622 10.358-9.256 7.0642zm-50.431-6.1786c-0.8424-1.5846-0.21475-8.6355 1.3293-14.933 0.60441-2.4653 3.3735-3.698 6.0231-2.6812 1.9821 0.7606 1.6039 13.447-0.51913 17.414-1.3046 2.4376-5.5773 2.5628-6.8333 0.2002zm-14.39-49.7c6.1875-0.3977 11.25-1.0266 11.25-1.3975s-2.9306-8.4655-6.5125-17.988c-16.782-44.615-17.877-69.25-3.2529-73.174 15.975-4.2868 21.795-9.4115 21.742-19.145-0.0737-13.57-15.923-24.715-27.4-19.269-7.1016 3.3699-14.171 15.62-11.69 20.256 3.2321 6.0392-0.0864 11.484-7.0864 11.628-6.2603 0.1281-7.8636-3.0844-5.6945-11.41l1.5789-6.0604-6.6919-6.3127c-20.578-19.412-36.166-19.112-39.078 0.7525-2.0024 13.659 0.81467 18.659 13.923 24.716 23.728 10.962 35.048 34.397 41.665 86.258 1.7021 13.34 1.9288 14.012 4.3089 12.759 0.92912-0.4889 6.7518-1.2143 12.939-1.612zm539.75 246.41c-37.742-8.4259-114.3-29.485-139-38.236-7.3184-2.5927-3.9691-13.409 11.917-38.484 4.2573-6.7199 8.8619-15.026 10.232-18.457 9.4589-23.682 15.225-44.351 22.802-81.739 9.0417-44.613 12.3-57.824 15.044-61 0.713-0.825 1.8218-4.2 2.4642-7.5 4.5621-23.438 8.8989-29.174 20.838-27.562 5.9443 0.8026 5.6096 1.015 7.0878-4.4976 4.0464-15.09 12.968-18.97 32.36-14.074l5.7461 1.4507 2.5836-8.6589c12.607-42.251 17.773-52.719 24.296-49.228 6.4619 3.4584 9.4585 17.613 9.6471 45.569 0.1932 28.619 0.8102 30.388 11.362 32.579 10.536 2.1873 14.114 8.9566 14.124 26.72v8.7008l8.5631 4.3736c6.3832 3.2602 9.2162 5.3605 11.128 8.25 5.202 7.8607 23.686 3.3258 36.582-8.9749 31.533-30.078 19.994-101.39-18.214-112.56-11.546-3.3761-20.778-1.681-26.797 4.9197-2.3254 2.5504-4.6718 4.3629-5.2142 4.0277-0.5423-0.3352-2.0882 1.1364-3.4352 3.2702-10.479 16.6-32.811-8.8558-24.02-27.381 7.6059-16.028 20.8-13.274 27.903 5.8254 2.0067 5.3963 1.7939 5.2552 4.8778 3.2345 17.77-11.643 48.572 2.3494 61.073 27.744 24.31 49.383 2.3101 106.55-42.912 111.51l-6.9563 0.7628-0.7789 3.7541c-2.5256 12.172-17.266 30.744-24.403 30.747h-2.9056l-6.2508 32.749c-9.9435 52.096-9.7275 50.105-9.5032 87.57 0.3419 57.107-1.7861 60.948-30.246 54.595zm18.786-8.6732c2.7723-6.9287 4.092-19.15 3.6438-33.743-1.1464-37.323 0.119-54.71 6.1427-84.407 4.1531-20.475 8.9273-46.958 8.9273-49.522 0-1.7476-1.6575-2.8921-8.75-6.0424-4.8125-2.1376-24.95-11.964-44.75-21.837-37.2-18.5-52.6-25.6-55.5-25.6-1.3784 0-2.5778 4.5168-6.9367 26.121-13.105 64.957-22.624 94.078-46.043 140.86-4.9551 9.8985-9.0092 18.356-9.0092 18.795 0 0.4389 6.1875 2.3078 13.75 4.1531 7.5625 1.8454 29.95 7.8213 49.75 13.28 30.351 8.3674 46.202 12.452 80 20.617 6.6081 1.5964 7.1808 1.4279 8.7862-2.5842zm-23.29-32.843c-5.3294-4.985-6.4291-8.5631-3.1682-10.308 3.4604-1.852 14.245 7.6676 12.839 11.333-1.5761 4.1071-4.518 3.7955-9.6707-1.0243zm3.1096-34.15c-7.1182-7.9182-7.8503-12.25-2.0704-12.25 1.5211 0 14.964 12.998 14.964 14.468 0 6.7003-5.7681 5.7078-12.894-2.2185zm7.6401-27.049c-3.9074-3.8526-4.5803-5.967-2.5464-8.0009 3.2822-3.2822 13.625 4.3775 12.416 9.1951-0.987 3.9325-5.1848 3.4246-9.8693-1.1942zm48.723-85.728c8.1593-9.9573 13.025-20.378 10.632-22.771-0.6057-0.6057-1.1012-2.3437-1.1012-3.8622 0-5.4983-4.7775-8.2879-28-16.35-9.075-3.1504-23.7-8.7603-32.5-12.466-31.555-13.289-58.609-22.572-63.684-21.85-4.1241 0.5864-11.605 26.279-8.0121 27.516 13.794 4.7484 24.859 9.9534 52.47 24.681 59.298 31.63 63.589 33.164 70.194 25.103zm-11.667-57.222c-0.7272-12.384-4.0733-17.112-13.302-18.797-10.892-1.9885-12.096-5.4613-11.68-33.703 0.1759-11.962 0.1745-21.75 0-21.75-0.1777 0-3.3317-0.8604-7.0089-1.912l-6.6859-1.912-0.5326 5.162c-2.1632 20.966-2.8719 25.512-4.5778 29.369-2.8709 6.4902-7.3805 8.1904-15.512 5.8482-14.643-4.218-20.504-2.5315-24.029 6.9139l-2.2018 5.9006 18.115 6.1389c18.2 6.1677 33.282 12.05 54.615 21.3 6.325 2.7425 11.895 5.0326 12.378 5.0891 0.4832 0.056 0.6737-3.3848 0.4234-7.6473zm-26.302-85.5c-2.3596-8.3684-3.9871-9.4892-7.4277-5.1151-2.9448 3.7436-2.5953 5.0276 1.6774 6.1624 5.9059 1.5686 6.4595 1.4678 5.7503-1.0473zm33.914-11.511c3.8515-11.149-5.239-21.568-12.491-14.316-5.1423 5.1423-3.276 13.736 4.4045 20.28l3.1724 2.7032 1.7211-2.2032c0.9466-1.2117 2.3834-4.1204 3.1929-6.4638zm341.02 294.35c-15.663-6.8212-16.614-27.166-2.0385-43.588 8.791-9.9041 11.607-15.602 11.587-23.446-0.024-9.3943 0.096-9.3584-14.091-4.2168-24.852 9.0065-50.37 16.134-59.893 16.728-16.558 1.0342-21.252-2.7707-16.034-12.998 5.1463-10.088 18.274-16.502 46.034-22.493 7.7379-1.6699 8.3661-1.8783 16.091-5.3381 15.129-6.7754-2.4488-27.262-46.966-54.74-22.047-13.608-25.412-41.081-4.9751-40.619 11.821 0.2672 25.011 7.9807 44.258 25.882 16.61 15.448 16.807 15.263 22.136-20.76 6.1619-41.656 11.382-50.794 25.304-44.296 22.325 10.419 31.612 46.424 22.775 88.296-3.3983 16.101-2.2502 15.071 12.882-11.556 17.146-30.172 27.94-35.699 40.067-20.513 16.437 20.584-0.4073 45.321-42.322 62.153-15.155 6.0858-15.238 6.1725-7.5 7.8298 41.757 8.9437 53.727 17.604 53.553 38.745-0.1982 24.073-19.202 24.414-45.734 0.8219-18.071-16.07-22.344-13.14-25.546 17.52-3.8034 36.418-14.449 53.18-29.588 46.588zm11.548-9.4181c3.9519-3.9519 6.6376-13.489 8.5601-30.398 5.6667-49.842 14.315-55.472 43.305-28.192 18.345 17.263 24.721 18.999 28.547 7.7703 5.6206-16.496-0.097-21.998-30.976-29.813-38.231-9.6749-38.781-15.926-2.9986-34.079 33.929-17.212 40.821-24.583 36.058-38.561-5.0202-14.733-13.326-12.926-23.874 5.1962-16.974 29.159-20.846 34.583-29.194 40.885-6.3159 4.7686-13.442 5.7033-15.412 2.0216-1.2675-2.3684 0.2456-6 2.5-6 2.0981 0 2.9633-2.1674 6.3869-16 9.4908-38.346 5.7257-65.146-11.786-83.892-7.4728-7.9997-12.283-0.6285-16.569 25.392-8.9843 54.54-13.926 59.522-37.162 37.467-20.412-19.375-35.909-28.464-41.869-24.559-6.1828 4.0511 0.9433 19.388 11.5 24.75 19.292 9.7993 51.623 37.409 56.641 48.37 6.1222 13.373-0.2555 19.159-30.687 27.841-25.475 7.2682-33.379 10.64-37.325 15.926-5.3772 7.2022 1.3816 5.9589 42.871-7.8861 40.053-13.366 44.09-13.852 47.679-5.7381 4.0248 9.0988 1.0435 20.772-8.5059 33.306-4.5068 5.915-5.2751 6.9854-10.865 15.138-5.2813 7.7024-5.4967 9.5018-1.8045 15.076 5.597 8.4499 10.538 10.422 14.982 5.9788zm253.6-98.1c-17.1-10.4-18.3-41.1-1.7-41.1 3.7397 0 3.7526-0.014 1.4926-1.5967-7.2343-5.0671 0.2638-9.2615 7.8519-4.3922 10.152 6.5142 12.768 11.751 11.669 23.358-1.8178 19.205-10.088 29.343-19.337 23.703zm7.2009-9.5092c3.839-5.859 5.8226-20.128 3.4217-24.614l-1.2177-2.2752-1.7181 2.2777c-1.4154 1.8765-2.2817 2.1539-4.9181 1.5749-7.1977-1.5809-10.595 4.8841-7.7353 14.721 2.7443 9.4403 8.7441 13.541 12.168 8.3158zm-401.6-6.7c-10.228-0.8626-15.691-3.1931-17.471-7.4532-9.0513-21.663 8.3632-23.462 47.228-4.8806 23.878 11.416 12.97 15.937-29.757 12.334zm21.578-8.7405c-1.8914-3.0603-24.9-10.765-29.043-9.7253-4.7556 1.1936-4.1975 8.947 0.7121 9.8923 4.366 0.8406 28.864 0.6963 28.331-0.167zm-473.33-19.329c-4.5523-5.4903-9.9045-22.009-7.7189-23.823 3.8835-3.223 16.714 18.222 13.741 22.968-1.2696 2.0268-4.6522 2.5069-6.0222 0.8547zm-85.176-17.211c-1.4095-1.6984-0.329-6.0746 3.1575-12.789 1.0574-2.0362 2.2257-5.8125 2.5964-8.3917 1.3511-9.4018 7.8094-8.7194 7.4941 0.7918-0.3724 11.229-9.3646 25.068-13.248 20.389zm-1001.4-35.4c-3.3926-3.3926 2.1303-10.312 13.833-17.33 27.765-16.652 25.936-27.292-7.9262-46.1-10.415-5.8-15.574-10.6-15.574-14.6 0-6.1421 2.2794-7.6714 31.842-21.364 23.565-10.915 21.066-20.005-11.574-42.102-18.233-12.343-22.398-17.713-18.849-24.303 5.5056-10.223 62.204-27.161 63.38-18.934 0.45875 3.2108-1.2873 4.0235-15.809 7.3583-47.391 10.883-50.437 16.496-19.03 35.066 26.012 15.38 31.486 23.705 24.079 36.62-7.0929 12.367-18.454 18.111-43.288 21.889-7.7287 1.1756-5.837 3.2843 16.851 18.784 32.408 22.141 32.693 32.79 1.4227 53.278-5.5668 3.6474-11.084 7.9336-12.261 9.5248-1.9918 2.694-5.5212 3.8014-7.0962 2.2264zm1042.4-15.8c-43.045-12.044-74.754-54.284-64.172-85.485 12.572-37.066 70.324-65.88 94.836-47.316 4.8997 3.7109 2.412 11.076-2.5572 7.5712-30.262-21.346-93.886 24.399-87.245 62.728 4.6904 27.068 49.989 60.94 73.686 55.098 43.457-10.713 57.958-60.046 21.778-74.091-32.067-12.448-67.839 26.66-38.415 41.998 4.2743 2.2281 15.023 4.5803 17.168 3.7571 4.0214-1.5432 6.2433-16.349 2.7781-18.513-4.2921-2.6805-1.1198-8.3739 3.7076-6.6541 15.867 5.6526 7.3062 31.452-10.708 32.27-41.468 1.8831-42.107-54.861-0.6854-60.924 21.611-3.1634 45.983 8.2916 53.666 25.224 12.859 28.338-31.765 73.311-63.838 64.337zm-131.76-7.9267c-1.4446-3.7646 0.12787-5.0546 10.967-8.9966 10.991-3.9975 13.749-4.0845 14.398-0.4546 0.84034 4.7054-23.68 13.842-25.365 9.4512zm241.26-40.059c-4.4897-4.4896-1.0005-5.9997 13.863-5.9997 14.885 0 17.588 0.9534 14.882 5.25-1.579 2.5075-26.342 3.1533-28.745 0.7497zm-934.64-24.7c-1.1033-1.7875-2.2658-4.2438-2.5833-5.4584l-0.57723-2.2084-4.652 2.3677c-9.7881 4.9817-10.805 4.3584-26.102-15.993-20.864-27.758-27.91-43.864-21.935-50.141 11.659-12.249 25.51-6.5114 39.363 16.305 10.244 16.874 25.227 52.525 23.589 56.128-1.4934 3.2832-4.7402 2.826-7.1018-1zm-10.925-12.77c4.8794-2.4893 5.2839-0.3673-3.483-18.276-17.421-35.587-23.264-42.071-32.598-36.178-4.8088 3.0356-5.9849 0.1853 11.337 27.474 20.87 32.878 18.419 30.206 24.744 26.98zm1471.5-33.7c-11.19-3.0236-17.943-10.655-14.059-15.886 0.7927-1.0676 1.2328-2.8411 0.9782-3.9411-2.7492-11.874 21.846-16.292 30.887-5.5475 11.812 14.038 0.4042 30.296-17.807 25.375zm8.5252-7.3405c10.864-5.5421 7.5564-16.104-5.1022-16.295-4.954-0.075-8.1887 1.4074-6.0101 2.7538 2.0138 1.2447 1.1834 5.4447-1.4129 7.1459-7.5234 4.9295 3.9326 10.779 12.525 6.3951zm222.2 2.9554c-17.429-8.8672-18.826-38.721-2.2275-47.576 4.2134-2.2475 41.314-3.1116 43.886-1.0221 25.143 20.422-11.962 63.706-41.658 48.598zm30.475-9.4979c12.082-5.9109 14.687-31.697 3.2355-32.018-1.891-0.053-8.1632-0.4491-13.938-0.8805-22.88-1.709-32.056 9.9739-22.44 28.57 4.0069 7.7486 21.486 10.031 33.142 4.3281zm-1585.5-86.7c-2.3227-2.3227-1.2335-4.6961 3.4019-7.4126 3.3684-1.974 5.1011-3.8615 6.4645-7.0421 1.0244-2.3899 2.5168-4.3453 3.3164-4.3453 7.7846 0 5.5713 10.284-3.5329 16.415-5.6549 3.8083-7.7168 4.3178-9.6498 2.3848zm1402.8-0.6203c-0.825-0.3738-2.625-1.4299-4-2.3467-3.9724-2.6488-117.69-4.8025-118.67-2.2475-0.6497 1.6931-8.0622 1.7944-16.329 0.2231-3.1081-0.5908-29.419-1.3247-60.5-1.6876-66.945-0.7815-67.559-0.9307-81.39-19.766-31.487-42.88-31.011-116.67 1.1591-179.68 10.108-19.799 13.936-21.938 46.731-26.116 30.039-3.8268 125.95-4.6692 186.5-1.6379 11 0.5507 31.145 1.4797 44.766 2.0644 46.696 2.0046 54.96 8.3631 62.616 48.177 5.5824 29.031 5.3833 114.83-0.2955 127.34-0.749 1.65-2.5696 6.8733-4.0458 11.607-4.7051 15.089-16.015 30.079-26.452 35.06-2.5241 1.2046-5.5524 3.2046-6.7296 4.4446-1.9513 2.0552-2.7742 2.2042-9.3108 1.6854-6.5345-0.5186-7.303-0.3796-8.6663 1.5667-1.5383 2.1963-2.7729 2.498-5.3825 1.3155zm-14.271-21.406c-16.004-32.578-20.367-64.637-15.144-111.27 0.8007-7.15 2.1426-19.3 2.982-27 2.883-26.448 8.7134-49.281 15.016-58.804 3.2521-4.9143-9.8242-6.5973-51.894-6.6788l-8.8112-0.017 0.8112 4.75c4.504 26.371-1.9806 37.223-34.533 57.791-63.986 40.43-77.75 109.03-28.862 143.86l6.7943 4.8397 27.706 0.3099c38.374 0.4292 88.621 1.5913 89.122 2.0612 1.8704 1.7516 0.6412-2.0412-3.1877-9.8356zm20.607 5.4758c-28.337-36.871-28.105-162.43 0.3722-201.5 1.9041-2.6125 3.0861-4.7977 2.6268-4.856-13.959-1.771-23.572 21.01-28.319 67.106-0.5947 5.775-1.7171 16.35-2.4942 23.5-4.8409 44.54-1.6878 70.846 12.226 102 7.7972 17.458 8.6046 18.5 14.34 18.5h4.8984l-3.6506-4.75zm-181.54 1.233c0.1626-0.1324-2.1449-1.618-5.1276-3.3014-37.145-20.963-40.491-70.464-9.0208-133.44 14.175-28.368 17.197-39.603 14.049-52.238-3.5399-14.208-4.3409-16.212-7.7602-19.414l-3.4359-3.2177-16.599 0.5444c-52.458 1.7206-59.401 4.2163-69.923 25.134-38.86 77.254-25.923 178.2 23.892 186.42 3.9514 0.6517 73.086 0.202 73.925-0.4808zm206.35-4.9589c20.559-13.606 30.178-65.081 24.951-133.52-7.2767-95.272-50.226-92.444-60.754 4-8.8007 80.622 9.5242 146.91 35.804 129.52zm-20.931-80.274c-1.488-3.0352 0.016-7.7096 2.5991-8.0768 3.5446-0.5039 5.3957 1.5998 4.6073 5.2361-1.0144 4.6791-5.4483 6.4268-7.2064 2.8407zm18.855-2.1243c-2.5552-4.7743-0.2311-9.9472 3.8824-8.6417 2.2097 0.7014 3.4152 3.9058 2.8832 7.6643-0.4495 3.1752-5.2205 3.8644-6.7656 0.9774zm-7.9169-21.876c-9.8464-8.3197-16.534-51.432-10.621-68.47 6.2877-18.117 26.534-12.627 33.116 8.98 7.4428 24.432-9.8531 70.172-22.495 59.49zm9.2011-13.443c1.5988-3.1312 3.0262-7.4062 3.1719-9.5 0.1458-2.0937 0.9876-6.4888 1.8708-9.7669 3.7944-14.083-1.2317-35.867-9.1031-39.453-6.6797-3.0435-9.8378 7.637-8.9928 30.413 1.1663 31.438 6.0485 42.025 13.053 28.307zm-183.5 114.4c-18.429-20.107-22.433-50.37-11.324-85.602 8.3271-26.411 20.83-40.362 54.458-60.761 29.256-17.748 36.264-30.173 29.876-52.976l-1.0052-3.5887-30.748-0.6595c-40.529-0.8694-62.491-0.837-62.081 0.092 12.09 27.372 10.403 44.124-7.8087 77.55-18.514 33.98-19.464 36.902-20.11 61.812-1.0998 42.414 8.5398 57.981 42.093 67.975 13.542 4.0337 13.755 3.9105 6.6495-3.8422zm-878.16 21.634c-6.4547-1.8371-7.341-3.7088-7.2726-15.358l0.0602-10.261-3.1981-1.1564c-15.987-5.7809-26.853-25.97-20.82-38.684 3.7727-7.9503 23.23-19.425 32.939-19.425 2.1264 0 2.2047-0.2935 1.7133-6.4155-1.5546-19.367 26.617-34.776 44.81-24.509l4.5645 2.576 7.6256-15.576c19.487-39.803 34.522-49.538 48.768-31.576 9.1154 11.493 8.3487 16.737-5.4728 37.426-14.036 21.01-15.149 24.417-8.3217 25.47 31.598 4.8747 46.592 32.447 27.886 51.28-2.5993 2.617-3.9937 5.0589-4.4197 7.7398-3.86 24.292-30.596 36.227-49.253 21.986-5.3768-4.1042-4.1609-4.1808-9.4373 0.5943-12.659 11.456-45.382 20.096-60.17 15.887zm35.865-11.016c12.27-3.7 23.3-13.2 23.3-20 0-6.6015 5.8062-11.819 9.6253-8.6493 1.2419 1.0307 1.4684 2.4525 1.0133 6.3617-2.469 21.208 35.586 17.414 39.043-3.8926 0.49091-3.0252 0.18353-3.8911-1.9872-5.5987-4.4745-3.5196-8.9543-18.752-6.7347-22.9 2.907-5.4318 12.49 0.5771 16.597 10.407 1.824 4.3653 2.7692 3.9441 4.8495-2.1612 5.3788-15.786-4.4676-27.019-28.223-32.197-3.4297-0.7476-4.4275-0.6515-4.857 0.4678-0.76593 1.9959-6.0225 1.7743-7.185-0.303-3.0932-5.5273-19.307 5.66-20.588 14.206-1.0108 6.7408-1.3317 7.2775-5.0926 8.5187-7.5775 2.5008-8.914-0.8663-4.4136-11.12 3.8412-8.752 3.5055-17.646-0.77203-20.449-1.8332-1.2012-2.3524-2.2583-2.0041-4.0807 1.2244-6.4051-13.738-10.748-23.796-6.9073-4.9232 1.8802-12.378 9.5147-12.63 12.934-0.53513 7.2573 1.2579 11.158 5.8214 12.664 4.6432 1.5324 8.5608 6.8766 8.1524 11.121-0.5325 5.5341-5.6696 5.2113-12.689-0.7973-12.092-10.351-40.732 6.706-38.878 23.154 1.1566 10.262 18.53 21.276 23.249 14.74 6.9607-9.6402 16.162-14.623 27.169-14.713 24.623-0.2017 9.9527 23.223-16.847 26.9-4.8116 0.6602-6.822 4.3544-6.822 12.535 0 3.6088 22.863 3.5257 34.698-0.1262zm-18.567-24.92c10.379-4.0912 13.681-7.9483 6.803-7.9483-5.6253 0-11.459 3.4228-14.061 8.25-1.2806 2.3756 0.67168 2.2945 7.2583-0.3017zm58.703-62.438c5.2243-1.0799 5.3694-1.2054 7.0161-6.0698 2.2857-6.7517 5.6863-12.306 14.045-22.941 12.37-15.737 13.049-20.378 4.1268-28.198-12.015-10.53-22.519 0.197-38.076 38.884l-4.2971 10.686 1.3408 5.8135c1.796 7.7873 1.5548 7.592 6.3135 5.1128 2.3076-1.2023 6.5962-2.6821 9.5302-3.2886zm-565.63 91.3c-2.1263-4.7839-8.6214-13.529-20.981-28.25-9.841-11.721-11.047-13.803-9.248-15.97 2.2813-2.7487 4.5784-1.6322 10.597 5.1509 24.701 27.838 33.225 43.32 23.852 43.32-1.7791 0-2.7779-1.0059-4.2198-4.25zm711.08-2.8764c-7.7779-12.902-18.455-63.155-34.75-163.56-8.1808-50.406-7.2988-46.854-11.814-47.586-1.8319-0.2973-4.9224-1.2056-6.8677-2.0184l-3.5369-1.4778-0.61998-11.866c-1.2642-24.197 2.0136-40.731 8.7944-44.36 1.3818-0.7395 2.5098-1.606 2.5067-1.9256-0.008-0.8268-33.988-17.894-49.802-25.014-14.188-6.388-24.766-12.343-25.481-14.344-1.9688-5.5082 21.419-33.109 31.605-37.299 5.6562-2.3266 5.6405-1.2679 0.18311-12.315-2.475-5.0101-4.5-9.3099-4.5-9.5551 0-1.9907-8.0778-13.434-12.599-17.848-9.1762-8.9592-4.6496-12.549 25.112-19.916 21.83-5.4034 21.654-5.5208 28.94 19.211 2.0254 6.875 6.6361 19.025 10.246 27 3.6098 7.975 7.0064 15.76 7.5478 17.301 1.9395 5.5184 1.8331 1.4906-0.75165-28.443-6.2173-72.001-6.0197-73.108 13.039-73.108 16.477 0 17.902 3.7945 22.428 59.75 1.1123 13.75 2.1752 26.8 2.3621 29 0.18686 2.2 0.41934-6.35 0.51663-19 0.47995-62.408 3.0812-71.276 19.642-66.963 16.644 4.3352 17.248 6.7535 13.444 53.806-1.2187 15.072-0.3062 53.997 2.1019 89.656 1.6433 24.335 1.7876 25.167 4.3012 24.809 2.5785-0.3673 2.5864 0.7503-0.1494-21.309-8.6928-70.092-3.4468-116.44 13.727-121.27 1.4264-0.40136 9.9268-0.72827 18.89-0.72647l16.296 0.003-0.6458-2.5033c-11.115-43.088-14.298-82.039-7.1423-87.382 14.084-10.515 24.364 0.47616 29.205 31.227 4.9652 31.537 5.4283 33.383 8.1995 32.688 6.512-1.6344 26.94 18.554 29.307 28.963l0.6823 3 0.571-3.5c0.314-1.925 1.3096-8.8688 2.2124-15.431 2.7109-19.704 3.3139-20.414 15.783-18.591 15.296 2.2364 14.633 1.416 16.473 20.375l0.7622 7.8534 3.8802-12.853c15.421-51.084 20.024-57.451 36.134-49.987 14.537 6.7349 15.474 15.684 4.3867 41.868-2.7936 6.5976-7.3065 18.914-10.028 27.369l-4.9492 15.374 2.0324 2.7615c4.9921 6.783 4.7595 18.3-0.9646 47.761-2.6347 13.561-6.5871 44.237-5.8007 45.023 0.1751 0.1751 3.013-4.8767 6.3065-11.226 16.527-31.863 34.167-52.4 42.726-49.742 2.8044 0.8708 22.234 15.938 24.864 19.282 3.9252 4.9901 2.9591 6.3378-11.304 15.769-13.751 9.0922-29.698 23.754-36.594 33.642-3.9021 5.5961-5.2648 5.8843 15.311-3.2382 62.508-27.714 67.714-28.423 79.467-10.821 7.4759 11.195 5.7574 14.348-9.9672 18.287-5.775 1.4465-20.4 5.5044-32.5 9.0174-12.1 3.5131-24.017 6.9098-26.481 7.5481l-4.4814 1.1607 2.6627 1.3951c3.3501 1.7553 3.5461 2.4305 4.7627 16.403 3.3602 38.591 3.2108 48.006-0.8314 52.407-1.1387 1.2399-2.1965 4.3352-2.5948 7.5931-2.4749 20.245-10.005 59.29-22.95 119-3.0405 14.025-7.2231 34.627-9.2945 45.782l-3.7662 20.282-4.9504 1.4701c-17.468 5.1875-45.189 7.3415-128.58 9.9909-44.284 1.4069-63.97 2.3722-83.592 4.0989l-7.092 0.624-2.0338-3.3736zm32.72-7.4c60.846-4.7611 125.5-7.7487 159-7.3471l26.853 0.3219 1.6732-9.5c1.9593-11.124 8.7276-44.148 17.83-87 14.707-69.235 17.933-90.832 13.387-89.644-2.1119 0.5523-13.473-0.1261-49.746-2.9704-17.531-1.3746-37.47-1.7235-108-1.8899-78.312-0.1847-109.47-0.9666-123.25-3.093-4.9553-0.7646-6.1545-11.05 8.8135 75.597 9.1146 52.763 18.758 102.61 22.928 118.5 2.7388 10.441 2.2297 9.7633 6.8577 9.1243 2.2832-0.3153 12.926-1.2599 23.651-2.0991zm66.5-46.597c-38.129-3.2598-65.099-23.998-64.932-49.928 0.3455-53.757 51.528-83.458 113.89-66.091 4.6733 1.3014 7.5253 1.6345 8.6842 1.0143 16.163-8.65 46.956 21.776 49.476 48.884 3.545 38.142-49.729 71.026-107.12 66.12zm41-11.261c39.124-9.8896 61.061-31.477 57.51-56.594-1.8394-13.013-12.524-30.078-22.408-35.787-2.9577-1.7086-3.3059-1.6032-4.0131 1.2146-0.824 3.2829-4.3388 3.3094-9.9113 0.075-21.125-12.262-66.418-13.195-89.095-1.8349-20.697 10.368-36.264 49.085-27.191 67.627 11.111 22.707 57.036 34.924 95.109 25.3zm116.3-145.6c0.687-1.1 1.8845-2 2.6611-2 2.5128 0 2.6438-5.1564 0.597-23.5-1.1047-9.9-2.0191-20.475-2.032-23.5-0.034-7.9123-1.5303-10.248-7.52-11.736-17.97-4.4639-72.824-4.0415-165.97 1.2778-67.671 3.8643-69.852 4.0359-72.523 5.7044-1.4108 0.881-2.2237 0.9062-3.0358 0.094-0.72038-0.7204-3.9787-0.9301-9.2973-0.5982-6.7664 0.4221-8.4227 0.2283-9.5384-1.1159-2.4466-2.948-33.022 0-35.115 3.3891-1.3438 2.1744-2.9224 15.165-3.621 29.798l-0.66721 13.977 9.399 0.6703c30.225 2.1555 46.585 2.6058 126.9 3.4926 87.448 0.9656 121.11 2.0133 144.5 4.4977 18.951 2.0127 23.783 1.9263 25.268-0.4516zm-224.87-64.609c0.2166-0.1898-0.1262-5.6429-0.7619-12.118-3.6601-37.28-4.5385-98.102-1.7493-121.12 3.0338-25.034 3.0842-24.918-12.539-28.684-4.6064-1.1104-5.495 30.488-3.4636 123.16l0.87972 40.131 8.6202-0.5133c4.7412-0.2824 8.7976-0.6687 9.0142-0.8585zm-28.299-2.003c-3.317-8.644-8.48-54.619-12.069-107.47-1.4348-21.13-2.8552-40.842-3.1564-43.803-0.93837-9.226-6.0708-11.993-16.748-9.0279l-3.878 1.0768 0.66701 5.6677c1.1865 10.082 3.4711 38.086 5.0717 62.168 2.6573 39.98 5.9772 76.866 8.078 89.75l0.52994 3.25h11.062c9.7641 0 10.989-0.1891 10.443-1.6123zm58.905-0.3652c1.399-0.037 1.6198-0.2945 0.7348-0.8562-1.5856-1.0065-1.1004-4.7415 6.8417-52.666 5.8577-35.346 6.097-36.384 13.183-57.179 8.4634-24.837 9.2977-22.721-9.1372-23.171l-14.721-0.35905-3.2865 2.7654c-10.351 8.7098-12.274 42.613-6.0671 106.94 2.6542 27.507 2.1894 25.775 6.7409 25.114 2.0415-0.2963 4.6118-0.5626 5.7118-0.5917zm26.296-1.6358c3.5203-0.4286 4.1956-0.8385 3.7408-2.2712-1.018-3.2076 15.034-48.514 24.096-68.012 2.402-5.1678 4.3672-10.648 4.3672-12.179 0-2.4956 1.633-5.1586 3.7321-6.0861 0.4224-0.18661 2.9354-4.3893 5.5846-9.3393 16.68-31.167 16.754-35.444 0.8789-50.75-8.3868-8.086-10.885-8.7678-8.2448-2.25 0.9439 2.3297-1.3168 5.5-3.9219 5.5-1.2219 0-2.8829 3.3949-6.2828 12.841-6.6417 18.453-41.459 123.05-42.242 126.9-0.3621 1.7812-1.0738 3.4953-1.5814 3.809-5.1135 3.1603 2.9156 3.9034 19.873 1.8392zm198.94-12.554c44.283-12.333 44.957-12.835 31.052-23.157l-2.7159-2.016-8.28 2.728c-4.554 1.5003-22.457 8.7199-39.784 16.043-17.327 7.3235-33.304 14.004-35.504 14.846-3.7362 1.4295-3.8351 1.5653-1.5 2.0599 7.4097 1.5692 15.609 2.1673 16.873 1.2308 0.7549-0.5593 18.692-5.8403 39.859-11.735zm-164.4 10.581c10.446-0.5961 10.814-0.6949 10.299-2.7663-2.1172-8.5204-7.2-36.419-8.5899-47.148l-1.684-13-2.2593 5c-2.1925 4.8521-20.194 52.654-21.586 57.319-0.6867 2.302-0.6408 2.3152 6.1475 1.7662 3.7617-0.3042 11.714-0.8312 17.672-1.1712zm-166.3-0.1c0-3.0706-13.917-23.952-23.443-35.176-6.2268-7.336-13.004-16.215-15.06-19.732-2.7132-4.6394-4.1202-6.1802-5.128-5.6162-1.75 1.01-25.37 26.32-25.37 27.22 0 0.3647 9.7875 5.2563 21.75 10.87 11.962 5.6139 27.15 13.103 33.75 16.643 11.943 6.4051 13.5 7.0755 13.5 5.8131zm188.83-38.087c1.1295-35.717 2.6447-67.501 3.5873-75.25 0.3939-3.2379 0.3455-3.3128-0.6467-1-0.5898 1.375-5.0392 10.452-9.8875 20.172l-8.815 17.672 2.0255 17.183c1.114 9.4509 3.7842 25.915 5.9337 36.586 2.1494 10.672 3.6505 20.074 3.3356 20.895-0.3852 1.0038 0.057 1.4919 1.3504 1.4919 1.8422 0 1.9731-1.5849 3.1167-37.75zm30.531 35c-1.678-3.4265-0.7388-32.11 1.504-45.933 4.7635-29.359 1.9195-109.8-3.9374-111.36-8.8084-2.3557-11.63-2.1705-12.225 0.80252-1.8391 9.1957-7.8458 109.27-8.943 148.99l-0.2555 9.2523h12.357c11.428 0 12.292-0.1339 11.5-1.7523zm27.323-3.4722c-2.1266-10.755 1.5894-50.257 6.8804-73.138 5.6796-24.562 5.5607-31.214-0.536-29.995-2.1194 0.42387-3.1385 0.0295-4.3338-1.677-2.4883-3.5525-4.2687-1.7237-6.5227 6.6999-4.5567 17.029-11.465 56.215-13.11 74.365-1.2784 14.104-2.7837 22.536-4.6764 26.196l-1.4326 2.7702h12.382 12.382l-1.0325-5.2222zm15.045-1.5841c6.1705-12.81 19.271-25.565 44.491-43.32 6.9933-4.9234 12.951-9.333 13.239-9.7989 1.1334-1.8339-18.215-16.273-20.306-15.154-8.954 4.792-49.544 75.157-43.276 75.023 2.2363-0.048 3.1095-1.0549 5.8529-6.75zm-247.59-12.983c-0.93267-9.2942-2.1207-16.594-2.7665-17-1.9487-1.2236-23.847-52.999-28.849-68.211-5.7383-17.449-4.9026-16.422-11.363-13.967-2.9 1.1019-10.119 3.1398-16.042 4.5287l-10.769 2.5252 3.3621 3.5649c3.8336 4.0648 5.9774 7.9862 10.26 18.768 10.702 26.941 53.393 91.027 57.539 86.375 0.14418-0.1618-0.47345-7.6244-1.3725-16.584zm128.49-103.97c-0.2305-0.23045-0.6156 0.2079-0.8559 0.97412s-2.2295 6.5681-4.4204 12.893c-5.7492 16.597-9.1981 27.359-9.134 28.503 0.031 0.54812 3.3798-8.6668 7.4425-20.478s7.1982-21.663 6.9678-21.893zm96.815 7.7672c1.8939-2.8192 2.9921-3.4518 6.4296-3.7039l4.1456-0.30399 2.7448-8.696c1.5096-4.7828 7.2397-17.471 12.734-28.196 11.637-22.718 12.47-26.438 7.1651-32.026-3.5113-3.6989-12.399-8.5017-13.512-7.3022-0.9142 0.98447-12.448 32.898-20.537 56.828-3.1607 9.35-6.3653 17.507-7.1211 18.127-1.1016 0.90313-1.24 3.6375-0.6977 13.783l0.6766 12.656 2.8445-8.8827c1.5644-4.8855 3.8723-10.413 5.1285-12.283zm-85.839-31.983c1.7195-3.483 1.7099-3.6983-0.341-7.7185-3.4409-6.7446-5.039-15.661-6.1294-34.199-1.5492-26.335-8.2351-38.118-16.761-29.54-2.4335 2.4483 2.1508 34.861 10.937 77.326l3.1626 15.286 3.6818-8.7861c2.025-4.8323 4.4778-10.398 5.4506-12.369zm-775.79 426.48c-1.674-1.6739 9.2772-31.596 13.608-37.18 1.56-2.0117 6.1268-1.0689 6.4712 1.336 1.1501 8.0326-16.458 39.465-20.079 35.844zm1716.8-19.993c-1.9776-1.9777-2.1645-0.9755 2.864-15.357 4.919-14.068 9.8379-18.749 11.397-10.846 1.4982 7.5931-10.615 29.849-14.261 26.202zm48.686-5.6358c-4.7273-5.7368-10.014-20.082-8.204-22.263 2.951-3.5557 4.8891-1.7834 10.008 9.1523 5.7837 12.355 5.3754 10.823 3.4093 12.789-1.8939 1.8939-3.8201 2.0126-5.2138 0.3214zm-701-5c-0.66-0.66-1.2-1.6372-1.2-2.1715 0-0.5344-1.1486-3.8426-2.5524-7.3516-3.623-9.056-3.4912-16.064 0.472-25.094 4.7219-10.758 2.8562-14.27-10.42-19.614-24.88-10.015-28.647-14.975-18.675-24.587 4.8034-4.6298 7.9763-6.3439 41.498-22.418 8.3027-3.9812 13.662-7.1098 13.421-7.8344-0.6225-1.8675-15.685-9.0264-32.243-15.324-33.623-12.789-42.406-20.722-35.002-31.618 7.9184-11.653 54.144-21.549 46.888-10.038-0.856 1.358-3.6545 2.0321-12.495 3.0094-42.555 4.7047-39.107 13.084 15.55 37.782 35.522 16.052 35.03 19.111-5.9415 36.945-34.063 14.827-35.749 21.276-7.5016 28.687 14.891 3.9068 17.24 10.413 10.949 30.326-2.7965 8.8517-2.721 10.875 0.6292 16.864 4.5146 8.0697 1.8968 17.71-3.377 12.436zm-795.7-4.5881c-10.624-3.7815-12.033-16.84-4.4662-41.397 3.3143-10.756 5.8376-13.27 8.9225-8.8872 0.84903 1.2062 5.4795 7.0035 10.29 12.883 17.707 21.642 18.906 29.996 5.0469 35.181-5.9886 2.2406-16.442 3.4133-19.793 2.2204zm17.179-9.4008c6.4782-3.0452 5.8926-4.7726-7.1786-21.176-6.9856-8.7663-7.0725-8.8062-8.4741-3.8853-6.6268 23.266-0.70377 32.75 15.653 25.061zm1524-13.916c-6.0441-4.4779-7.617-7.0972-5.6705-9.4427 1.8503-2.2295 5.3517-1.7304 8.0359 1.1453 1.3334 1.4285 4.1394 3.4768 6.2357 4.5517 3.1802 1.6307 3.7599 2.4012 3.5 4.6527-0.5243 4.5427-5.2204 4.1907-12.101-0.907zm-1591.6-6.8082c-17.68-6.1056-19.603-19.677-7.7121-54.435 10.439-30.513 6.2122-35.91-16.259-20.761-37.267 25.123-54.487 20.901-54.612-13.391-0.0917-25.035 6.0733-29.263 43.436-29.793 35.736-0.5066 36.815-4.7025 6.5-25.262-34.835-23.625-40.745-36.406-23.792-51.455 20.998-18.64 49.484-2.1718 58.829 34.01 8.9723 34.741 17.329 37.18 43.672 12.747 27.852-25.832 37.377-28.205 51.317-12.784 18.207 20.142 13.219 31.697-17.027 39.442-39.403 10.09-45.01 19.794-15.105 26.14 27.854 5.9116 40.502 17.732 41.464 38.753 1.3073 28.55-19.854 34.312-43.299 11.79-20.787-19.969-26.333-24.106-32.27-24.073-6.9706 0.038-7.6845 2.5537-8.3684 29.485-0.51759 20.382-0.83129 23.634-2.7556 28.566-4.4873 11.501-12.277 15.075-24.018 11.021zm9.134-7.4485c7.0802-2.9967 8.4523-7.3784 9.7507-31.138 1.8339-33.559 4.3597-40.537 14.651-40.478 8.4809 0.049 20.464 8.2838 38.316 26.332 12.576 12.714 13.334 13.07 22.453 10.538 21.941-6.0914 4.1916-38.366-24.407-44.382-40.613-8.5432-39.717-27.582 1.9543-41.541 35.632-11.936 36.529-12.754 25.607-23.318-4.0664-3.9329-7.5902-7.8221-7.8306-8.6427-0.37734-1.2876-1.2454-1.3224-6.3375-0.2543-12.148 2.5481-18.083 6.8902-35.521 25.986-20.157 22.073-40.05 11.473-49.776-26.524-8.1863-31.983-43.9-47.424-47.592-20.577-1.739 12.644 4.6122 20.368 25.325 30.799 13.297 6.6962 20.52 12.86 24.024 20.498 0.89937 1.961 2.4525 4.7809 3.4514 6.2664 2.5588 3.8055 1.5008 5.7289-5.6261 10.228-9.3677 5.9135-10.478 6.1741-19.944 4.6828-32.936-5.1889-48.836 1.6444-48.758 20.954 0.0799 19.775 13.92 24.999 31.792 12 20.507-14.916 41.037-17.846 45.765-6.5319 2.7588 6.6028 1.9892 10.823-5.0946 27.936-12.926 31.225-9.1072 54.323 7.7979 47.168zm1490.3-0.1c-55.323-9.2579-67.069-77.598-21.233-123.53 21.13-21.172 47.074-30.031 63.486-21.677 7.843 3.9923 14.179 12.272 12.392 16.193-1.7019 3.7352-4.6435 3.0115-8.0838-1.9889-18.094-26.299-74.117 7.8682-85.934 52.41-15.107 56.947 39.94 90.909 98.343 60.674 30.11-15.588 39.426-51.644 15.944-61.71-34.646-14.851-66.848 0.8701-54.707 26.707l1.7992 3.8286 7.1979 0.2928c8.3193 0.3385 9.5101-0.8029 10.751-10.306 1.0764-8.2406 1.4337-9.2252 3.5489-9.7783 9.8675-2.5804 3.4231 22.356-7.207 27.886-17.286 8.9939-36.126-16.781-25.49-34.874 13.956-23.743 73.845-21.89 82.367 2.5492 14.381 41.241-38.098 82.537-93.176 73.32zm-1881.5-35.1c-22.412-6.9087-39.286-39.799-52.312-101.96-8.2325-39.288-5.2698-64.619 10.619-90.79l4.5699-7.5272-9.443-13.694c-22.659-32.96-24.378-34.08-39.91-26.19-13.185 6.7-17.517 5.59-22.956-5.91-8.851-18.71-3.486-30.53 14.956-32.96l5-0.65904v-11.69c0-26.109 15.109-32.624 34.901-15.05l4.0992 3.6398-0.40779 6.3602c-1.8231 28.434 1.6803 36.572 26.408 61.343l10 10.017 9.5 0.16917c93.889 1.6719 165.44 146.48 95.5 193.29-40.057 26.809-70.921 37.549-90.531 31.504zm31.03-9.1c98.675-32.625 108.75-110.99 23.327-181.44-19.842-16.364-59.215-32.578-61.93-25.504-0.30417 0.7926-2.2145 1.7219-4.2452 2.065-4.75 0.8-15.15 12.6-15.15 17.3 0 0.5462-0.71378 1.5855-1.5862 2.3095-14.234 11.813-23.881 48.605-19.426 74.087 16.175 92.531 38.868 124.47 79.013 111.19zm-28.5-7.2895c-2.5346-0.4922-3-1.0464-3-3.5727 0-3.5552 6.9484-5.0646 9.4483-2.0524 2.6661 3.2124-1.2557 6.6335-6.4483 5.6251zm19.702-31.831c-5.2254-2.5988-4.377-7.7876 1.2428-7.6005 6.0342 0.2009 9.3284 5.7274 5.1282 8.6034-1.5156 1.0378-2.6162 0.8645-6.3711-1.0029zm-41.845-25.323c-5.8525-1.6957-5.1014-7.9088 0.95606-7.9088 5.8697 0 9.6918 4.5955 6.4873 7.8-1.3732 1.3732-2.9977 1.397-7.4434 0.1088zm21.64-47.8c-4.3583-2.1772-5.173-7.5109-1.2326-8.0702 6.8638-0.9743 13.382 4.6632 9.255 8.0048-2.7786 2.25-3.6354 2.2569-8.0223 0.065zm-33.287-25.869c-2.7591-2.7591 0.28672-7.3794 4.8648-7.3794 7.2582 0 7.6201 7.3239 0.38521 7.7961-2.4955 0.1629-4.858-0.025-5.25-0.4167zm18.161-32.859c-5.1137-2.6893-6.3882-4.6907-4.835-7.5928 2.3885-4.4631 15.25 1.2693 14.746 6.5724-0.37642 3.9623-3.672 4.3016-9.9112 1.0204zm-16.122-30.842c1.2386-1.8194 3.584-4.5841 5.2118-6.1437l2.9598-2.8357-10.088-10.566c-22.43-23.493-29.665-38.287-28.388-58.046 0.91208-14.106-0.06682-15.696-11.621-18.874-11.832-3.2538-17.332 25.458-5.9604 31.112 5.6208 2.7946 6.8205 7.0242 3.0013 10.582-3.2631 3.04-6.2964 2.5966-10.416-1.5227-10.622-10.622-26.425 1.9477-19.504 15.514 4.0826 8.0026 10.781 8.5307 20.477 1.6143 11.499-8.2021 23.916 0.31986 42.574 29.218 9.7012 15.026 8.8088 14.27 11.752 9.9468zm1760.4 136.4c-2.7636-2.5746-2.8039-5.5613-0.094-7.0113 5.0964-2.7276 7.8918-18.072 7.9154-43.45 0.042-45.672 8.4416-65.452 26.365-62.09 33.259 6.2395 7.3593 114.59-27.391 114.59-3.2528 0-5.2486-0.5989-6.7942-2.039zm17.468-12.204c22.801-24.736 33.405-85.02 16.112-91.595-11.945-4.542-15.991 6.5639-17.244 47.339-0.8291 26.966-2.3587 39.088-6.1926 49.079-1.024 2.6686 2.6497 0.2501 7.3254-4.8225zm-1480.2-2.7c-20.446-3.5863-13.176-27.535 8.3592-27.535 17.359 0 38.227 21.386 23.141 23.715-1.925 0.2972-5.75 1.1947-8.5 1.9944-6.3008 1.8325-17.771 2.743-23 1.8258zm16.716-8.1845c9.1302-1.567 10.067-2.9603 4.5431-6.7606-8.3962-5.7767-17.047-6.3318-22.831-1.4648-4.9498 4.1649-3.3314 8.0261 3.8739 9.2425 4.0838 0.6894 4.7417 0.643 14.414-1.0171zm1418.7-9.5969c-0.921-1.1126-1.289-3.7937-1.1188-8.1523 0.4977-12.745-5.0613-19.975-25.996-33.814-23.453-15.504-26.354-20.774-21.161-38.444 14.111-48.014 66.347 10.45 57.02 63.819-0.8891 5.0878-1.6166 10.53-1.6166 12.095 0 4.8384-4.4963 7.6751-7.1276 4.4966zm1.7565-36.24c-3.6-43.167-40.687-72.97-43.412-34.886-0.6542 9.1435 0.095 10.058 17.578 21.46 8.9793 5.856 16.825 11.842 20.194 15.41 3.0308 3.2082 5.6878 5.8516 5.9044 5.874 0.2166 0.023 0.097-3.5134-0.2649-7.8575zm-1292.6 13.428c-1.4379-2.3266-1.9427-4.1847-1.4413-5.3053 0.42442-0.9485 1.0515-11.175 1.3936-22.725 0.79646-26.895 2.8222-31.724 13.934-33.214 36.618-4.9114 37.73 42.083 1.2682 53.59l-7.0631 2.2291-0.30493 4.1974c-0.43104 5.9334-4.4832 6.572-7.7865 1.2272zm18.709-17.505c22.224-9.5741 18.84-39.919-3.9735-35.639-7.0622 1.3248-8.8963 6.9941-8.1108 25.071 0.7193 16.554-0.11531 15.824 12.084 10.568zm233.25 18.066c-9.3487-1.3192-11.245-3.0358-12.484-11.303-3.011-20.081 57.97-30.388 93.259-15.764 6.1484 2.548 1.5478 8.1013-6.0061 7.2499l-4.7439-0.5347-0.0564 3.88c-0.10866 7.4698-1.9351 10.654-6.9436 12.104-11.584 3.3553-50.892 6.0789-63.025 4.3668zm34.94-9.2c14.025-0.6238 25.626-1.2404 25.781-1.3703 0.15458-0.1298 0.54685-2.4803 0.87171-5.2232 0.73745-6.2266 2.012-5.8357-24.09-7.3883-34.09-2-41.56-0.3-41.56 9.8v5.345l6.75 0.01c3.7125 0 18.225-0.5045 32.25-1.1283zm741.93-58.181c-10.188-2.8906-20.392-11.707-25.637-22.152-1.3933-2.7748-2.6693-5.1978-2.8356-5.3844-0.1663-0.18661-3.3747 1.4512-7.1297 3.6396-25.26 14.721-30.071 11.565-61.077-40.068-16.97-28.26-16.997-28.343-11.394-35.43 10.066-12.735 55.329-44.349 86.781-60.614 2.586-1.3372 3.0064-2.2766 4.1028-9.1676 4.1692-26.204 27.785-27.811 38.227-2.6021 0.9097 2.1963 1.794 3.0039 2.8468 2.5999 20.59-7.9012 45.315 11.528 32.579 25.601-1.3159 1.4541-0.9175 2.1893 3.8196 7.0496 20.491 21.024 12.831 52.831-12.723 52.831-1.7446 0-2.9049 0.92323-4.0845 3.25-0.9061 1.7875-3.8957 5.3512-6.6435 7.9193l-4.9958 4.6693 5.961 8.9119c21.772 32.55-1.7164 69.183-37.796 58.946zm24.661-9.9691c17.503-8.9387 19.176-30.927 3.6922-48.527l-3.7822-4.2992-12.64 8.2992c-6.9523 4.5646-17.411 11.36-23.241 15.102l-10.601 6.8027 1.4358 3.4362c7.9425 19.009 28.431 27.718 45.137 19.186zm-64.31-22.632c41.354-23.907 74.29-46.207 76.412-51.735 0.2845-0.74144-4.2764-6.8828-10.31-13.883l-10.82-12.553-1.0307 3.3952c-2.058 6.7794-6.8737 10.826-26.031 21.872-34.471 19.877-45.718 26.525-54.232 32.053l-9.2323 5.9954 2.1791 3.1295c16.082 23.095 14.418 22.505 33.066 11.725zm-29.522-28.46c9.9307-6.488 41.296-24.756 60.242-35.086 18.262-9.9573 18.88-11.478 8.7137-21.446-7.1146-6.9754-7.9108-7.1381-17.441-3.5639-16.212 6.0801-75.219 44.551-73.841 48.143 0.7911 2.0615 11.514 18.317 12.082 18.317 0.2763 0 4.8862-2.8641 10.244-6.3646zm9.5763-46.091c29.668-19.344 49.349-27.46 56.852-23.445 2.6074 1.3954 2.4174 1.0853-6.4056-10.457-3.7861-4.9527-7.2399-9.6413-7.6752-10.419-1.8816-3.3624-70.547 42.187-82.794 54.921l-4.1879 4.3548 3.5236 5.6478 3.5236 5.6478 12.876-9.4056c7.0819-5.1731 18.011-12.754 24.287-16.846zm111.98 15.299c19.786-10.482 12.855-43.575-9.023-43.083-6.07 0.13651-8.2927-0.14878-8.2927-1.0644 0-2.4962 3.2906-5.853 7.8451-8.0031 7.7426-3.655 9.8942-10.852 4.3337-14.495-5.0008-3.2767-22.139-1.7312-26.827 2.4193-9.1104 8.0656-17.58 5.0693-9.852-3.4852 7.8655-8.7062-1.6727-25.27-12.383-21.504-6.9124 2.431-11.084 20.341-6.5427 28.09 7.4335 12.684 15.783 22.806 32.406 39.283 9.7103 9.625 18.464 18.738 19.452 20.25 1.953 2.9881 5.1628 3.5637 8.883 1.5929zm-950.43 83.3c-12.324-7.816-19.382-23.977-13.467-30.837 5.3779-6.2364 39.419-1.4886 40.425 5.6382 0.46411 3.288-2.2315 5.2398-5.5136 3.9919-4.2-1.52-4.41-1.17-4.41 7.51 0 16.335-5.7705 20.986-17.114 13.792zm8.8401-15.983c0.65215-9.5146 0.51032-9.6599-9.4265-9.6599-10.828 0-11.255 5.5067-1.2276 15.818l5.943 6.1113 2.0775-2.0775c1.6387-1.6387 2.1949-3.7913 2.6336-10.192zm1329.4-25.74c-0.9753-1.7426-0.4455-5.358 0.785-5.358 0.4027 0 1.0415-7.0875 1.4196-15.75 3.424-78.459 14.71-83.762 55.025-25.857 19.609 28.166 18.622 32.608-7.9098 35.611-13.131 1.4862-19.668 3.1652-33.255 8.542-12.299 4.867-14.681 5.284-16.064 2.8119zm20.228-12.961c10.743-4.38 24.607-7.3659 34.283-7.3836 3.955-0.007 7.4482-0.42942 7.7627-0.9382 2.1423-3.4664-15.207-26.55-36.35-48.364l-7.549-7.7886-1.3139 3.7886c-3.6 10.56-9 64.29-6.4 64.29 0.4318 0 4.7621-1.6215 9.6231-3.6032zm-1671.8-16.36c-12.328-3.9847-18.154-20.235-13.136-36.64 0.59124-1.9328 0.15363-2.1505-5.513-2.7428-36.932-3.8602-49.805-23.193-29.098-43.702 13.764-13.632 18.84-14.61 34.824-6.7058l10.617 5.25 9.5788-0.13058c17.521-0.23884 42.465-10.835 71.638-30.431l7.059-4.7418 1.2314-6.6828c13.622-73.93 139.28-147.88 221.95-130.61 45.154 9.4332 65.61 34.954 83.033 103.59 23.047 90.795-0.99121 119.85-103.06 124.58-88.174 4.087-133.23-7.6248-169.27-43.997-4.95-4.9965-9.6807-9.0852-10.513-9.086-4.0395-0.004-53.555 19.968-63.487 25.608-13.102 7.4396-13.229 7.903-7.3437 26.744 7.1125 22.768-12.687 38.032-38.508 29.687zm23.763-8.414c8.7604-4.7624 10.706-14.304 5.302-25.997-8.7126-18.851 6.1973-31.42 58.216-49.077 9.036-3.0672 16.588-5.7359 16.783-5.9304 0.1945-0.19451-2.8111-4.5681-6.6792-9.719-3.87-5.16-7.03-10.22-7.03-11.25 0-2.405-0.24124-2.2963-14 6.3072-29.9 18.69-50.28 26.53-69 26.53h-12.5l-8.6217-4.1424c-15.846-7.6131-26.103-4.3352-33.959 10.853-7.844 15.164 31.449 34.497 41.62 20.479 5.7017-7.8582 11.374-8.1414 14.447-0.7213 1.8417 4.4462 0.13747 7.5182-5.7113 10.295-8.2046 3.8953-11.872 17.344-7.0634 25.901 5.0234 8.9379 18.124 11.94 28.2 6.4631zm291.33-30.06c80.611-9.4337 93.725-41.125 59.896-144.75-28.401-86.999-138.2-91.965-233.24-10.55-25.322 21.693-51.598 61.669-44.922 68.345 1.0314 1.0314 1.526 3.4854 1.526 7.5725 0 6.8805-1.0362 5.3612 16.903 24.784 42.556 46.076 53.843 51.657 114.1 56.415 11.848 0.93553 73.357-0.36733 85.736-1.816zm-37.07-22.239c-3.1029-3.1029 2.1227-12.583 6.6905-12.138 4.1042 0.40006 4.5632 2.9587 1.5276 8.5156-2.2558 4.1293-6.0422 5.7984-8.2182 3.6225zm85.403-11.203c-1.7528-3.2751 0.78685-9.5559 4.0157-9.9312 4.1062-0.47732 5.3859 1.9098 3.7668 7.0264-1.5802 4.994-5.8179 6.5756-7.7825 2.9047zm-185.87-1.33c-1.4824-1.4824-1.5186-3.5877-0.13012-7.5706 2.3389-6.7094 8.4702-4.7133 7.6579 2.4931-0.64946 5.762-4.3484 8.2569-7.5278 5.0775zm-42.629-30.371c-2.4287-2.4287-1.9641-3.7671 3.586-10.33 5.4624-6.4593 5.8686-6.6902 8.9084-5.0634 3.3034 1.7679 2.272 5.2372-3.3541 11.282-5.6668 6.089-6.6982 6.5529-9.1402 4.1109zm85.63-2.63c-1.7256-1.7256-1.4863-3.6111 0.84292-6.6418 1.1236-1.462 2.839-3.7278 3.8121-5.0352 3.4974-4.6991 8.3211-0.35657 6.1038 5.495-2.3249 6.1356-7.7106 9.2303-10.759 6.1821zm106.04-2.9617c-3.5387-3.5387 3.3175-13.097 8.0827-11.269 3.0723 1.179 3.0428 4.4123-0.0755 8.2757-3.1637 3.9196-6.0148 4.9853-8.0072 2.9929zm626.36 102.96c-2.372-3.62-4.2953-9.8017-5.6366-18.116l-1.2289-7.6182-12.011-0.27971c-10.16-0.23662-12.18-0.54938-13.112-2.0297-2.3064-3.6633 0.3626-5.242 9.0131-5.3313 4.3312-0.0447 9.6203-0.15723 11.754-0.25l3.8786-0.16867-0.611-6.75c-0.3361-3.7125-0.619-9.0853-0.6286-11.94l-0.018-5.1896-3.75-0.31036c-3.431-0.28397-3.75-0.56555-3.75-3.3104 0-2.6353 0.4559-3.1126 3.75-3.9264l3.75-0.92636v-13.201c0-14.028 0.7296-16.301 4.8156-15.005 2.2469 0.71314 3.1621 6.3154 3.1757 19.44l0.01 8.3817 4.25-0.60276c2.3375-0.33152 11.562-1.1392 20.5-1.7949 8.9375-0.65569 16.25-1.5408 16.25-1.9669 0-0.42608-0.7035-3.8083-1.5634-7.516-1.8937-8.1655-1.3397-11.383 1.96-11.383 3.3308 0 4.1355 1.411 6.1304 10.75l1.7623 8.25h3.2736c4.7126 0 6.4371 0.91275 6.4371 3.407 0 2.9985-1.8424 4.593-5.307 4.593-2.1818 0-2.7624 0.37672-2.3275 1.5101 0.5961 1.5535 2.0846 10.407 3.1388 18.669 0.5871 4.6018 0.6497 4.6711 3.7963 4.2067 20.008-2.9534 31.464-1.5517 28.751 3.5178-1.0386 1.9406-2.9229 2.2518-22.331 3.6883l-8.7792 0.64979 0.2792 5.9929c0.4848 10.402-6.0853 11.155-7.3694 0.84372-0.3568-2.8648-0.8068-5.3635-1-5.5526-0.1932-0.18905-7.3263 0.27633-15.851 1.0342-8.525 0.75785-17.975 1.3988-21 1.4244-8.3398 0.0706-8.4893 0.29101-7.163 10.565 0.6213 4.8128 1.8399 9.8347 2.7081 11.16 2.3184 3.5384 1.5415 6.7231-1.7325 7.1012-1.9242 0.22223-3.1203-0.35041-4.2119-2.0164zm29.9-35.91c17.94-1.376 16.897-0.63663 15.51-11.002-2.0464-15.291-2.2263-15.645-7.759-15.261-12.953 0.89908-31.109 2.5146-34.001 3.0254l-3.25 0.57401 0.01 7.1387c0 3.9263 0.2985 9.5526 0.6528 12.503l0.6441 5.3642 6.5972-0.59595c3.6285-0.32777 13.347-1.1137 21.597-1.7464zm542.8-30.14c-4.2978-5.6536-5.238-14.475-1.639-15.378 3.2247-0.80935 4.2637 0.40472 6.8448 7.9981 2.3514 6.9177-1.455 12.314-5.2058 7.3803zm-63.582-6.3708c-1.8635-1.8635 3.4588-20.701 6.9336-24.541 4.0882-4.5175 9.2569-0.0799 6.1947 5.3184-0.731 1.2887-2.6818 6.1681-4.335 10.843-2.964 8.3816-5.9478 11.225-8.7933 8.3792zm118.68-20.674c-9.5707-5.6589-10.542-6.5764-10.189-9.6195 0.3859-3.3198 4.9874-4.1318 7.9934-1.4106 1.1088 1.0037 4.7799 3.4233 8.1579 5.3768 6.5401 3.7821 7.7339 5.7207 5.1278 8.3268-2.2657 2.2657-3.061 2.074-11.09-2.6736zm-152.86-2.3193c-2.1289-2.1289-1.917-3.6746 0.9237-6.7397 2.9594-3.1933 6.0705-3.4062 7.6145-0.52114 2.2338 4.1739-5.2559 10.543-8.5382 7.2609zm13.223-43.098c-8.001-2.6884-17.369-7.5802-31.684-16.545-75.936-47.554-65.309-108.6 34.433-197.81 45.174-40.404 74.817-53.081 109.27-46.733l6.5016 1.198 2.4085-2.948c8.9-10.76 45.4-64.25 45.4-66.37 0-0.35898-1.2375-1.3896-2.75-2.2904-22.854-13.61-14.169-45.933 11.4-42.428 12.256 1.6799 24.35 14.264 24.35 25.338 0 2.4378 0.024 2.4319 4.0317-0.99882 17.096-14.633 40.468-8.0965 40.468 11.318 0 24.459-23.015 42.292-39.802 30.841l-4.1977-2.8634-3.2183 3.7496c-2.5878 3.0149-28.902 46.18-38.13 62.549l-2.1421 3.7993 5.0167 6.2007c2.7591 3.4104 6.1792 7.5462 7.6002 9.1908 13.327 15.424 18.056 55.744 10.974 93.563-9.2876 49.593-34.279 98.795-46.3 91.153-0.8107-0.51536-1.1779-4-1.1309-10.735 0.1006-14.454-2.1911-19.425-8.9697-19.456-3.9707-0.0184-5.3202 2.5531-7.1614 13.647-2.144 12.918-4.0489 13.11-11.442 1.1526-5.1177-8.2774-9.4765-11.934-14.962-12.553-10.666-1.2022-19.746 10.855-14.801 19.654 3.8708 6.8872 1.9998 11.844-3.921 10.388-3.4695-0.85324-4.6994-2.0611-5.4147-5.3177-1.299-5.9144-10.405-12.217-17.651-12.217-19.323 0-31.764 17.344-31.826 44.37-0.031 13.523-3.0481 15.591-16.268 11.149zm8.8065-20.038c-0.1432-33.892 28.535-52.521 57.686-37.471 0.4092 0.21121 1.1985-0.81161 1.7541-2.2729 6.8963-18.139 22.384-22.88 34.882-10.678 3.0475 2.9754 5.6721 5.0188 5.8322 4.541 6.5309-19.482 31.288-13.344 31.288 7.7569 0 4.5718 1.6843 3.4198 7.0763-4.84 24.836-38.046 35.069-102.26 22.567-141.63-6.0615-19.088-37.44-47.329-49.933-44.941-1.7899 0.34216-3.4228-0.0495-4.5828-1.0994-42.866-38.793-203 111.33-186.59 174.92 7.3084 28.312 52.766 69.297 77.02 69.442l3.0581 0.0183-0.058-13.75zm117.48-89.178c-1.3569-2.5353-0.3421-4.9713 2.3215-5.5732 17.833-4.0297 20.64-3.8708 20.64 1.1689 0 4.6365-20.711 8.6092-22.961 4.4044zm-34.432-42.654c-1.3559-3.5333 0.018-5.2002 5.695-6.9086 5.6088-1.688 9.518 0.33163 8.2675 4.2714-1.1549 3.6389-12.739 5.8268-13.962 2.6373zm48.937-0.76262c-3.9602-2.8957-1.3291-6.3084 5.4553-7.076 6.9105-0.78183 8.001-0.38348 8.001 2.9227 0 4.6636-8.9716 7.4326-13.456 4.1533zm-63.3-52.79c-3.9127-3.9667 0.4138-8.2777 7.6935-7.6661 3.6439 0.30617 5.2742 3.4782 3.3155 6.4508-1.1871 1.8017-9.5229 2.7219-11.009 1.2153zm52.321-0.43867c-2.2434-2.2434-1.9522-3.9838 1.0635-6.356 3.0744-2.4183 6.6143-2.6822 8.3253-0.62057 3.5092 4.2284-5.4669 10.898-9.3888 6.9766zm36.062-68.737c20.375-36.026 32.511-49.276 38.495-42.029 11.466 13.889 36.079-6.3263 30.94-25.412-3.8289-14.22-27.639-7.7757-35.306 9.555-2.4631 5.5682-2.7652 5.2093-7.8319-9.3054-7.6293-21.856-13.209-27.575-23.91-24.506-13.832 3.967-12.326 20.855 2.688 30.134 7.6506 4.7283-0.4656 20.812-31.655 62.729-6.6942 8.9966-12.032 16.422-11.862 16.5 0.1701 0.0784 5.2593 2.6332 11.309 5.6774l11 5.5348 3.8788-7.0348c2.1333-3.8691 7.6477-13.699 12.254-21.844zm10.19 268.6c-3.3725-0.51597-5.0705-2.5192-4.65-5.4858 0.6318-4.4565 12.827-2.8911 12.827 1.6466 0 1.7795-2.7673 4.5961-4.3214 4.3986-0.6482-0.0824-2.3832-0.33412-3.8554-0.55936zm-621.77-8.4708c-8.4372-4.5702-9.2256-29.091-1.672-52.008 7.3467-22.29 10.045-43.19 11.08-85.812 0.3137-12.925 0.8151-27.662 1.1142-32.75 0.5399-9.184 0.5271-9.25-1.7941-9.25-7.0431 0-20.944-28.346-18.589-37.905 0.1798-0.72973-2.269-2.191-5.928-3.5374-26.369-9.7032-39.2-30.814-37.993-62.507 2.1486-56.397 48.895-95.141 85.126-70.554l3.4746 2.3579 4.5535-6.1768c11.246-15.255 23.897-13.233 27.054 4.3232 3.6238 20.154-26.132 38.991-30.117 19.065-0.3818-1.909-1.2258-3.066-2.238-3.0678-0.9172-0.002-2.714-2.0637-4.125-4.734-3.0126-5.7012-7.7292-8.6082-16.719-10.304-47.754-9.0106-81.336 80.137-43.128 114.49 6.5649 5.9025 23.846 12.809 23.846 9.5297 0-1.9169 9.2359-6.8853 14.875-8.0019 3.0938-0.61262 6.3437-1.3163 7.222-1.5638 1.0787-0.30394 2.3308-3.445 3.8591-9.6811 4.3144-17.605 9.0976-22.731 21.209-22.731 7.5049 0 11.042-3.876 13.262-14.534 6.6981-32.158 9.5661-41.396 15.816-50.943 10.236-15.636 17.39-2.1295 19.15 36.15 0.3078 6.6952 0.8529 14.008 1.2115 16.25l0.6519 4.0769h10.25c16.569 0 21.409 3.7768 23.758 18.536l1.1876 7.4643h3.7543c5.1969 0 11.775 2.8179 12.786 5.4772 1.5063 3.9619 3.2156 21.906 2.5585 26.859-0.4419 3.3315-0.2376 5.3347 0.6536 6.4077 1.0133 1.22 1.4363 14.472 1.9362 60.659 0.781 72.151 1.9659 83.998 10.812 108.1 5.6474 15.386 9.3601 29.928 8.692 34.046-0.2637 1.6247-0.5163 3.496-0.5616 4.1586-0.1205 1.7656-2.0403 2.0064-34.082 4.2741-60.014 4.2475-128.54 6.2274-132.95 3.8412zm45.5-7.84c13.75-0.54777 37.6-1.6462 53-2.441 15.4-0.79478 35.125-1.7484 43.834-2.119 15.52-0.66062 15.822-0.71617 15.238-2.7989-15.926-56.814-20.315-92.609-19.235-156.87 0.5749-34.204 0.5217-35.75-1.2304-35.75-3.83 0-26.787 5.1448-58.106 13.022-17.875 4.4957-38.308 9.4556-45.408 11.022-15.703 3.465-14.264 0.88292-14.959 26.844-1.6193 60.509-3.7606 79.927-11.594 105.14-4.8255 15.532-7.1033 39.778-4.0793 43.422 1.5565 1.8755 7.0848 1.9446 42.54 0.53218zm-21.75-28.064c-5.2394-3.0517 3.8681-13.559 11.036-12.733 5.6585 0.65249 4.306 5.8546-2.6364 10.14-6.7171 4.146-6.0743 3.9476-8.3997 2.5932zm0.4-32.12c-2.8028-2.8028-1.3189-5.6764 5.55-10.747 7.4021-5.4647 12.6-6.6759 13.705-3.1935 1.6815 5.2979-15.476 17.72-19.255 13.941zm0.4667-30.467c-2.3181-2.318-0.5111-6.2493 4.0421-8.7941 6.2699-3.5043 9.6864-3.1204 10.099 1.1348 0.4539 4.6825-10.944 10.856-14.141 7.6593zm0.9728-91.826c4.3233-0.82072 19.336-4.6635 33.36-8.5396 14.025-3.8761 30.329-8.3753 36.232-9.9984 13-3.6 34.3-7.96 38.7-7.96h3.2571l-0.4676-12.949c-0.7201-19.942 1.1788-19.777-77.298-6.7326-11.55 1.9198-27.075 4.2197-34.5 5.1109-16.239 1.9491-21.989 4.2543-23.249 9.3202-0.4445 1.7875-1.3079 3.25-1.9186 3.25-3.2961 0 3.2473 22.572 8.3129 28.675 1.4428 1.7385 7.7736 1.6779 17.494-0.16737zm21.649-53.952c24.487-4.3898 43.024-7.1325 58.291-8.6244l12.079-1.1805-0.8747-5.578c-1.5478-9.8697-6.1476-12.776-19.511-12.326-17.271 0.58139-20.006-5.8619-14.906-35.124 1.5785-9.0588 1.9935-8.5552-6.5614-7.9615l-6.6955 0.46472-1.4983 6.637c-0.824 3.6503-2.1971 11.011-3.0512 16.356-3.5596 22.278-6.932 27.449-18.36 28.151-8.4078 0.51652-11.364 2.0697-14.077 7.3948-1.5167 2.9778-5.1232 13.479-5.1232 14.917 0 0.50805 0.1386 0.48671 20.288-3.1256zm35.7-80.8c-0.02-6.7814-5.5377-8.4713-8.5622-2.6225-2 3.87-2 3.87 3.6 3.87 3.3353 0 4.9988-0.41617 4.9963-1.25zm-32.113-12.78c8.1046-5.871 10.624-14.554 5.6624-19.515-7.5859-7.5858-16.476 4.0274-13.374 17.469 1.3659 5.9174 2.0987 6.1118 7.7114 2.046zm-149.7 335.83c-0.66-0.66-1.2-2.0344-1.2-3.0542s-1.0853-5.7673-2.4119-10.55c-1.3265-4.7827-3.88-15.446-5.6744-23.696-3.8645-17.768-2.9899-16.167-7.6279-13.962-15.7 7.45-38.3-5.7-38.3-22.27 0-1.6754-0.857-2.0825-5.3627-2.5476-38.593-3.9832-36.161-58.689 2.846-64.008l8.3805-1.1428-0.574-10.137c-1.9139-33.796 48.854-39.327 57.75-6.2912 0.9613 3.5702 1.3628 3.9689 3.465 3.4413 26.414-6.6294 58.753 31.342 42.083 49.412-1.3974 1.5147-2.7604 4.8647-3.4583 8.5-3.1345 16.328-18.248 32.896-32.016 35.098-3.279 0.52432-4.1659 1.0577-3.8127 2.2927 0.2532 0.88518 2.124 7.0094 4.1575 13.609 9.5093 30.865 8.9659 41.5-2.1204 41.5-4.46 0-6.1321 0.49065-8.5201 2.5-3.2466 2.7319-5.7573 3.1603-7.6176 1.3zm13.234-11.8c4.6565 0 4.6693-1.6161 0.1524-19.207-5.9674-23.239-12.872-40.836-14.809-37.737-0.1528 0.24444-1.2829 2.3208-2.5115 4.6142l-2.2336 4.1697 3.9854 14.102c2.192 7.7561 4.7107 18.48 5.5972 23.83 2.1493 12.973 1.9755 12.518 4.3041 11.271 1.072-0.57371 3.5537-1.0431 5.5149-1.0431zm-32.11-47.698c1.5534-0.78677 3.2633-2.6896 3.7998-4.2285 0.5364-1.5389 2.0602-3.2923 3.3862-3.8965 2.7071-1.2334 4.98-7.862 5.8572-17.082 0.9798-10.298 6.0685-9.7336 9.2584 1.0258 5.6199 18.956 13.477 20.906 27.224 6.7578 9.3021-9.5743 12.787-18.562 8.5994-22.177-3.0312-2.6165-4.4521-9.8821-3.2455-16.595 1.7099-9.5134 5.3048-9.658 11.561-0.4649 1.926 2.83 0.5069-8.0609-1.7189-13.192-7.1049-16.38-33.402-23.334-37.892-10.021-2.5388 7.5266-7.654 8.9245-9.1693 2.506l-0.561-2.3766-1.7117 2.4438c-0.9414 1.3441-1.7117 3.4365-1.7117 4.6498 0 4.4718-4.4803 6.7258-7.4554 3.7506-4.0558-4.0558 4.7442-19.998 12.458-22.569 2.0982-0.69939-0.5468-7.0564-4.7268-11.36-7.8872-8.1212-22.458-11.426-30.362-6.8867-9.5205 5.4678-10.669 24.948-1.74 29.503 5.157 2.6309 5.8599 12.912 0.8827 12.912-0.4909 0-1.61 0.27533-2.487 0.61185-1.0511 0.40336-2.7608-0.66147-5.0171-3.1248-12.314-13.444-38.304 4.8995-35.124 24.791 2.4048 15.039 21.627 29.349 24.141 17.972 4.2922-19.42 16.094-28.942 27.008-21.791 11.869 7.7768 3.4829 22.724-17.151 30.569-2.4438 0.92915-2.6357 1.3794-2.1456 5.0338 1.5963 11.901 16.652 19.01 28.043 13.241zm-22.025-28.914c8.2957-4.1784 12.714-12.297 7.5801-13.926-3.8158-1.2111-9.9768 5.424-12.339 13.288-0.8124 2.7049 0.3466 2.8603 4.7587 0.63805zm-1192.3 84.64c-2.7861-2.7861-3.3264-5.8467-2.8376-16.072l0.429-8.96h-3.151c-28.803 0-47.418-35.34-38.056-72.24 11.674-46.02 49.248-72.47 85.175-59.95l9.0837 3.1649 4.6788-4.4831c9.6901-9.2848 29.156-16.976 33.966-13.42 1.5648 1.1569 2.9405 1.9514 3.057 1.7654 1.7368-2.7716 8.5839-11.413 19.681-24.838 31.296-37.861 39.581-49.916 52.125-75.841 19.012-39.295 29.923-49.011 43.476-38.716 19.94 15.16 115.34 106.67 115.34 110.65 0 3.6093-13.613 13.823-32.5 24.384-6.6 3.6907-14.475 8.8019-17.5 11.358-22.983 19.423-32.687 29.65-65.148 68.663-18.956 22.782-34.338 39.5-36.344 39.5-0.69513 0-3.2315 2.3899-5.6364 5.3109-4.9464 6.008-16.301 16.447-19.484 17.912-2.324 1.0699-6.3232-0.53877-12.114-4.8726l-3.225-2.4138-5.7335 4.67c-12.526 10.203-18.455 9.8935-30.819-1.6086-7.8456-7.2988-5.2346-8.4333-24 10.428-37.023 37.22-48.87 23.93-21.341-23.92 13.551-23.55 13.841-25.46 5.231-34.06l-5.608-5.608 0.3805-6.6638c0.313-5.45 1.235-8.41 5.028-16.17l4.6435-9.5-3.7641-5.0059c-5.208-6.92-7.001-10.68-7.444-15.6-0.75-8.33-19.661-13.38-35.084-9.36-42.162 10.98-67.268 79.8-39.313 107.75 8.7805 8.7805 19.53 12.246 27.309 8.8046 3.3503-1.482 5.0254-1.7921 5.5034-1.0188 0.47551 0.7694 1.9482 0.46832 4.7829-0.97781 10.942-5.5823 18.055 1.4034 16.96 16.657-1.1773 16.4-18.779 29.259-27.759 20.279zm15.316-8.0791c4.867-3.8284 5.7911-15.369 1.7474-21.822-1.0116-1.6145-9.0931 3.4151-11.544 7.1845-6.5339 10.049 1.1102 21.47 9.7966 14.638zm33.125-3.6316c4.3822-2.0897 4.3827-2.0801-0.36546-6.7165-3.3952-3.3154-3.965-3.5679-4.4071-1.953-2.7328 9.9838-1.7453 11.778 4.7725 8.6695zm17.044-19.57c14.605-22.2 19.827-24.144 32.614-12.135 4.9752 4.6727 7.5464 6.3886 9.5879 6.3986 1.5343 0.008 3.6896 0.25099 4.7896 0.54105 1.4015 0.36957 3.4962-0.79609 7-3.8953l5-4.4227-8.5272-8.8684c-10.12-10.53-28.83-32.27-41.83-48.62-11.009-13.844-9.5796-13.266-13.181-5.3242-5.6291 12.415-5.1714 15.858 3.1464 23.668 8.0263 7.5366 7.0718 13.088-5.9598 34.662-3.3626 5.5668-7.1339 12.221-8.3807 14.788l-2.264 4.67 5 4.374c6.3419 5.5479 5.1769 6.0704 13.009-5.8349zm85.539-14.635c3.5862-3.2366 7.7881-7.7143 9.3377-9.9504l2.8174-4.0656-4.0289-4.2996c-6.92-7.38-16.14-20.23-37.15-51.8-27.98-42.03-34.41-49.86-39.9-48.51-10.35 2.54-24.13 11.98-24.13 16.52 0 1.5775-0.45 3.1463-1 3.4862-3.9137 2.4188 1.2213 11.369 15.347 26.75 6.6932 7.2877 19.006 21.575 27.362 31.75 38.351 46.702 41.401 49.085 51.339 40.115zm38.16-41.62c43.55-52.305 68.134-75.21 114.11-106.32l9.8294-6.6504-9.8294-9.0147c-5.4-4.96-18.76-17.57-29.69-28.02-49.07-46.93-72.84-68.5-75.47-68.5-4.0178 0-18.909 20.891-25.52 35.803-9.6999 21.877-22.523 41.684-42.636 65.856-20.869 25.081-32.111 39.609-31.627 40.872 0.2627 0.68459 3.3679 5.0079 6.9005 9.6073s15.558 21.413 26.724 37.363c27.862 39.8 37.555 52.43 39.001 50.816 0.40203-0.44889 8.5991-10.266 18.216-21.816zm-32.79-120.27c-1.6633-1.1292-4.8043-10.785-4.1029-12.613 0.75176-1.959 5.0064-2.1445 6.5493-0.28549 5.453 6.5705 3.4886 16.927-2.4464 12.898zm20.448-16.25c-2.4437-1.4273-6.4952-18.521-4.8575-20.494 3.4369-4.1412 6.0752-1.5352 8.8798 8.7709 2.9594 10.875 1.5513 14.979-4.0223 11.723zm18.153-30.966c-2.6537-2.6537-4.7187-12.469-3.0471-14.483 3.1918-3.8458 6.0551-1.5896 8.4105 6.6272 2.2957 8.0085-0.74995 12.47-5.3635 7.8561zm690.22 235.42c-13.452-6.7034-23.875-24.802-18.612-32.317 3.5771-5.107 16.62-6.6395 31.69-3.7235 11.486 2.2225 13.668 8.2566 2.884 7.9757l-5.0264-0.13092 1.5791 5.1309c5.8438 18.988 0.19486 29.398-12.515 23.065zm7.76-8.2c0-1.5236-0.92777-6.1181-2.0617-10.21-1.1339-4.092-1.8587-8.2164-1.6105-9.1653 1.1194-4.2807-15.068-3.5798-16.72 0.724-1.3263 3.4564 3.498 10.12 12.367 17.083 6.4514 5.0646 8.0245 5.3721 8.0245 1.5681zm-605.5 4.4903c-8.9563-3.6429-12.038-8.9544-11.287-19.453 0.75126-10.5 9.0306-27.267 13.464-27.267 1.2399 0 5.0823-1.5323 8.5387-3.4052 16.244-8.8016 31.834 1.8996 33.588 23.055 1.5269 18.412-25.297 34.801-44.304 27.07zm18.939-8.3735c20.648-6.3175 24.968-25.897 8.0251-36.369-6.5311-4.0364-22.335 3.8285-26.844 13.359-9.3135 19.687-1.5091 29.23 18.819 23.01zm1730.2-21.27c-4.9486-3.2624-6.9569-7.459-6.2849-13.133l0.5857-4.9453h-9.2618c-10.7 0-13.329-1.1336-12.285-5.2956l0.6543-2.6068 15.243-0.46231c8.3838-0.25427 16.807-0.61375 18.718-0.79883 2.7929-0.27047 3.5506 0.0449 3.8605 1.6065 0.212 1.0686 1.4009 2.7417 2.6419 3.7179 11.156 8.7757-2.0813 29.691-13.872 21.917zm7.4153-9.1536c1.3585-5.0451 0.9794-7.3011-1.3007-7.7402-2.516-0.48455-5.0535 5.807-3.7378 9.2676 1.4636 3.8495 3.7797 3.1474 5.0385-1.5275zm-1028.5-31.32c-24-10.47-20.5-56.61 4.3-56.61 3.6767 0 2.0422-10.721-9.3282-61.184-2.4393-10.826-4.4352-19.939-4.4352-20.25 0-0.31121-1.4924-0.56583-3.3163-0.56583-1.824 0-5.7615-0.45-8.75-0.99999-2.9886-0.55-7.4334-1.1906-9.8774-1.4236-32.99-3.15-84.15-68.11-100.11-127.08-6.5831-24.328-1.5189-39.313 8.804-26.052 7.8783 10.121 16.568 14.248 21.191 10.063 3.1655-2.8647 2.3518-5.1793-7.1131-20.234-3.6439-5.796-0.76072-6.5678 12.187-3.262 21.136 5.3965 35.848-19.158 15.466-25.813-7.3546-2.4014-9.1984-5.5668-5.3377-9.1636 2.6385-2.4582 6.533-2.6227 9.6928-0.40949 22.95 16.074 38.694-29.594 17.971-52.129-11.808-12.841-13.147-15.996-8.5998-20.268 12.21-11.471 70.765-20.713 94.628-14.936 49.013 11.866 66.396 62.687 57.534 168.2-5.0509 60.14-19.5 93.294-47.665 109.37-4.8993 2.7957-5.75 3.7052-5.75 6.1472 0 6.2601 9.8161 73.315 11.594 79.202 0.4522 1.4969 1.5008 1.6386 8.2665 1.1168 27.601-2.1284 36.657 30.397 11.639 41.801-8.3797 3.8199-21.508 2.1497-29.196-3.7145l-3.3038-2.52v4.3545c0 15.404-18.658 31.528-30.5 26.36zm15.303-10.917c6.4558-6.9197 9.2981-18.397 6.7373-27.206-2.2795-7.8411-2.2465-7.8401 13.819 0.43793 17.792 9.1676 22.996 9.5633 29.802 2.266 10.427-11.178 1.7275-22.434-17.224-22.286l-8.9079 0.0695-1.8876-3.7383c-5.148-10.196-8.2436-28.013-13.709-78.906l-0.555-5.1676-6.6884 2.315c-3.6785 1.2732-9.2947 2.847-12.48 3.4972-4.6737 0.95393-5.6918 1.5047-5.2723 2.8526 15.962 51.295 19.012 88.168 7.2913 88.172-13.774 0.005-19.348 13.527-12.025 29.175 5.5902 11.946 14.535 15.557 21.101 8.5186zm-7.4727-137.69c7.141-1.5082 14.521-4.9622 15.205-7.116 0.4034-1.2711 1.5331-1.891 3.4462-1.891 52.052 0 74.493-201.1 27.624-247.54-22.584-22.38-70.598-26.337-108.36-8.9315-8.8839 4.0954-9.0158 2.9508 1.6055 13.93 22.363 23.116 16.306 58.044-11.466 66.117l-5.1495 1.497 1.4842 5.0631c5.31 17.97-1.52 29.37-17.55 29.37h-8.7236l1.3816 4c5.5623 16.104-12.478 25.252-27.375 13.881-5.5873-4.2649-5.4857-4.2939-4.7941 1.3687 7.8661 64.409 61.291 127.24 111.88 131.58 4.4816 0.38443 16.304-0.36562 20.83-1.3215zm-26.318-22.984c-1.8088-3.3797 1.2512-9.2425 4.6146-8.8414 4.0576 0.48388 5.1326 3.0029 3.1003 7.2647-1.9629 4.1162-5.9227 4.9255-7.7149 1.5767zm-46.8-28.22c-3.8771-3.8771 3.3688-14.024 8.7866-12.304 3.6036 1.1437 3.3892 4.1737-0.6358 8.989-3.8379 4.5913-5.9967 5.4694-8.1508 3.3153zm83.467-5.4667c-2.6-2.55 2.1-11.33 6.1-11.33 2.2146 0 4.248 1.8456 4.248 3.8556 0 4.4178-7.7703 10.041-10.333 7.4777zm-48.656-28.82c-1.6292-1.963-0.6287-5.6252 2.5778-9.4359 6.0067-7.1386 10.729-0.11541 4.9855 7.4147-2.846 3.7313-5.5454 4.4527-7.5633 2.0213zm-59.8-0.71c-3.0447-3.0447 7.1469-19.8 12.044-19.8 5.3741 0 4.6997 4.7663-1.9113 13.507-5.5569 7.3468-7.7294 8.6962-10.132 6.2933zm-89.541 203.46c-0.29148-0.47163-3.8768-10.06-7.9673-21.307-11.36-31.25-24.74-63.95-26.16-63.95-9.083 0-52.235 20.706-76.003 36.469-37.46 24.84-43.01 21.25-64.07-41.47-7.54-22.44-6.72-22.68-43.87 12.89-43.94 42.09-52.6 44.14-72.35 17.11-6.83-9.34-17.24-33.9-17.24-40.67 0-21.567-10.522-16.856-44.812 20.062-20.039 21.575-23.317 23.903-23.988 17.04-0.27156-2.7798 1.539-4.9596 19.104-23 31.673-32.53 43.463-39.85 50.855-31.577 2.6703 2.9886 3.483 5.3251 9.2688 26.647 5.0145 18.48 11.732 29.837 22.841 38.619 9.5182 7.5237 11.54 6.3631 45.731-26.256 45.416-43.327 50.721-44.454 62.403-13.258 11.012 29.408 20.054 47.526 25.32 50.734 0.73923 0.45048 7.6591-3.3628 17.5-9.6435 53.402-34.083 83.711-47.034 93.699-40.038 5.393 3.7774 36.749 81.773 35.88 89.249-0.30407 2.6171-4.8924 4.3727-6.1424 2.3503zm736.34-0.2c-28.136-8.5896-33.202-36.49-7.2079-39.695 2.5893-0.31928 8.2186-1.6581 12.51-2.9751 20.634-6.3334 29.68-1.862 28.223 13.95-2.1518 23.344-15.021 34.369-33.524 28.72zm15.685-8.1285c7.3506-2.7772 10.727-9.2806 10.583-20.385-0.1519-11.743-9.0555-12.189-31.516-1.5769-3.0238 1.4286-5.6417 2.0187-7.21 1.6251-1.8231-0.45757-2.7324-0.11351-3.5024 1.3252-5.2536 9.8164 18.388 24.02 31.645 19.011zm-878.51-75.49c-3.96-1.665-6.6946-7.0348-9.7833-19.211-3.5844-14.13-2.6047-17.773 4.0941-15.227 1.4468 0.55008 7.8888 1.0035 14.315 1.0077 31.718 0.0205 37.441 4.5982 22.185 17.744-16.09 13.864-24.709 18.252-30.811 15.686zm15.7-15.44c7.4268-5.3687 11.832-9.1537 11-9.4516-0.76313-0.27334-7.6875-0.62046-15.388-0.77138l-14-0.2744 0.21754 2.9638c1.254 17.084 3.6077 18.06 18.17 7.5336zm-152.31 5.7526c-0.80828-1.2375-3.7847-9-6.6142-17.25s-5.7074-15.9-6.3953-17c-2.0623-3.2979-2.7598-7.5628-1.4876-9.0956 1.4825-1.7863 5.5736-1.8216 6.6209-0.0571 0.58323 0.98261 5.8073 1.6511 19.3 2.4696 35.273 2.1399 35.657 2.9843 12.262 26.976-17.168 17.606-20.153 19.365-23.686 13.957zm17.14-17.75c4.4633-4.675 9.0845-9.7375 10.269-11.25l2.1542-2.75-2.8226-0.0765c-1.5524-0.0421-3.614-0.22784-4.5812-0.41279-3.92-0.75-25.74-1.72-25.74-1.15 0 0.33988 1.103 3.4352 2.451 6.8785 1.3481 3.4433 3.2032 8.9605 4.1225 12.261 0.91929 3.3 1.8709 6.3423 2.1146 6.7607 0.673 1.1552 3.1547-0.96088 12.033-10.261zm1069.9-47.25c-0.7759-1.2375-2.4294-6.1875-3.6745-11-1.2452-4.8125-2.7352-8.75-3.3111-8.75-0.576 0-5.391 1.4238-10.7 3.164-10.349 3.3922-12.95 3.2898-12.95-0.51014 0-3.2694 1.0054-3.8934 12.25-7.6026 5.3625-1.7689 9.7499-3.5166 9.7499-3.8837-0.0004-1.7172-8.2392-27.777-9.0389-28.591-0.7869-0.80039-6.2615 1.6087-13.078 5.7552-3.2449 1.9737-7.2948-1.8804-5.2916-5.0357 0.5-0.78766 4.0591-3.1329 7.9091-5.2117 4.2488-2.2941 6.8859-4.3308 6.7096-5.182-0.1597-0.77131-3.0335-8.5675-6.3861-17.325-6.3285-16.531-6.5685-18.71-2.1339-19.376 2.8108-0.42225 3.3577 0.54198 9.8119 17.298 3.1778 8.25 6.107 15.37 6.5095 15.821 0.4025 0.45177 5.6537-1.4272 11.67-4.1754 9.19-4.1984 38.845-16.493 44.501-18.449 1.4937-0.51669 1.2986-1.4899-1.7469-8.711-3.592-8.5169-3.4899-12.005 0.3504-11.971 2.8124 0.0251 3.7 1.1482 6.7061 8.4847 1.5774 3.85 3.1571 7.3473 3.5103 7.7719 0.5731 0.68883 16.255-5.4366 32.373-12.645 7.0157-3.1376 8.2345-3.2265 9.5868-0.69962 2.0944 3.9133-1.6397 6.1012-30.961 18.141-7.7418 3.1789-7.6307 2.6937-3.2275 14.092 2.1967 5.6866 4.7769 12.814 5.7337 15.839s2.0696 5.8628 2.4729 6.3062c0.4034 0.44342 8.285-2.2152 17.515-5.908 17.447-6.9806 19.619-7.2703 20.304-2.7086 0.4226 2.8131-0.4566 3.3115-18.298 10.374-8.8 3.4832-16.168 6.4492-16.373 6.5912-0.2051 0.14194 0.4165 3.1743 1.3813 6.7385 3.0558 11.289-3.219 14.694-6.752 3.6635-2.4832-7.7525-1.7517-7.7268-20.836-0.7337-9.581 3.5106-23.045 8.3273-29.92 10.704-6.875 2.3764-12.651 4.431-12.835 4.5658-0.1844 0.13477 1.0364 5.0674 2.7129 10.961 2.2493 7.9073 2.7866 11.205 2.0502 12.581-1.3616 2.5441-4.5794 2.3472-6.2923-0.38499zm26.4-40.47c12.925-4.6569 25.638-9.185 28.25-10.063 2.6125-0.87751 4.75-2.2033 4.75-2.9461 0-1.4967-5.8562-18.499-8.531-24.768-0.9387-2.2-2.0849-4.9936-2.5471-6.208-0.8922-2.344-22.778 5.6812-49.327 18.088l-9.4271 4.4053 3.861 12.056c2.1235 6.6308 4.1633 13.668 4.5329 15.638 0.5784 3.0834 0.9687 3.4901 2.805 2.9231 1.1731-0.36224 12.708-4.4688 25.633-9.1257zm-1314 27.78c-14.613-4.4611-15.885-9.347-6.3498-24.388 12.054-19.014 12.928-31.751 3.2167-46.884-1.69-2.63-3.84-4.79-4.77-4.79-3.0369 0-9.6224-5.0784-13.467-10.385l-3.761-5.191-8.1837 2.7217c-26.727 8.8887-49.597 7.9986-56.514-2.1994-8.8772-13.087 10.991-51.259 28.377-54.521l3.2589-0.61137-2.1377-4.657c-1.6126-3.513-2.1413-6.6273-2.1526-12.678-0.0682-36.611 64.29-60.797 77.993-29.31 1.0366 2.3819 1.9903 4.4872 2.1193 4.6784 0.12897 0.19121 2.7574-0.59629 5.841-1.75 24.463-9.1527 59.004 12.998 52.252 33.509-1.2884 3.9135-1.2881 4.9645 0.002 8.6732 9.8673 28.361-12.367 42.056-48.24 29.714l-5.2814-1.8171-0.38916 2.6616c-0.54888 3.754 1.8088 33.71 3.0968 39.346 4.8023 21.015 15.814 29.058 31.976 23.356 10.777-3.8022 17.21 0.91089 18.715 13.71 1.8769 15.97-8.1522 27.593-26.904 31.181-4.2896 0.82073-14.048 3.5344-21.685 6.0305-13.904 4.5441-20.88 5.4747-27.01 3.6031zm29.5-12.381c7.7-2.4308 16.959-4.9651 20.575-5.6318 15.454-2.8491 19.258-8.673 15.383-23.55-1.9364-7.4342-1.6103-7.202-7.2601-5.1704-22.31 8.02-42.2-10.57-42.2-39.46 0-3.6657 0.44276-3.873-6.8238 3.1936l-6.2371 6.0654 3.0137 6.1846c9.3523 19.192 7.3276 38.457-5.3772 51.162-5.4392 5.4392-5.5813 6.4989-1.3491 10.06 4.4011 3.7033 11.675 3.0176 30.273-2.8536zm-29.815-73.773c9.7149-4.7029 13.502-13.15 13.199-29.443-0.28455-15.325 0.44075-15.723 17.851-9.8115 25.8 8.7608 38.768 4.4466 38.041-12.655l-0.27616-6.5-5.1656 0.33437c-7.0618 0.45712-9.343-1.7682-9.3124-9.0844 0.0464-11.101 5.3949-16.648 11.756-12.193 3.0352 2.1259 2.789 0.52534-0.64941-4.2212-13.132-18.128-40.358-19.54-49.332-2.559-3.1229 5.9093-8.9536 1.9285-6.3394-4.3281 5.4842-13.125-8.5443-25.606-25.331-22.537-35.335 6.461-49.993 37.802-27.141 58.031 14.003 12.395 12.602 20.989-1.5428 9.4674-10.963-8.9295-27.806-0.96352-36.053 17.052-10.826 23.646 8.9584 31.323 47.243 18.332l6.1324-2.0808-0.13238-6.4382c-0.22336-10.864 6.6473-14.784 18.708-10.675 9.4497 3.2198 7.2686 10.922-5.0904 17.976-9.2688 5.2903 3.5616 16.114 13.435 11.334zm-14.828-18.941c1.3792-1.149 2.1186-2.588 1.7814-3.4667-1.25-3.29-5.63-0.81-5.63 3.2 0 2.7861 0.772 2.84 3.8579 0.26908zm79.079-47.909c1.0869-0.68778 1.1916-1.458 0.43005-3.1647l-1.0065-2.2557-2.18 2.18c-3.5243 3.5243-1.4835 5.9234 2.7565 3.2404zm168.78 125.42c-21.42-2.59-49.94-10.26-55.4-14.89-12.94-10.97-26.54-59.58-40.86-146.09-3.0048-18.15-5.9274-35.7-6.4946-39-0.56719-3.3-2.8294-19.275-5.027-35.5-2.1977-16.225-4.6996-34.225-5.5599-40-6.1425-41.236-3.2616-50.828 19.218-63.986 23.986-14.04 75.283-26.039 130.58-30.545 25.047-2.0406 55.18 9.0421 64.432 23.698 1.331 2.1085 3.1005 3.8336 3.9322 3.8336 1.8905 0 2.998 2.8959 3.8915 10.176 0.54893 4.4726 1.2134 6.0147 3.1339 7.273 2.8208 1.8483 3.0264 3.5109 0.93434 7.5565-1.7086 3.304 0.38752 18.898 11.022 81.994 6.4946 38.536 6.168 37 7.8696 37 1.6922 0 2.4568 4.3785 3.2308 18.5 0.65824 12.01 8.6677 59.997 13.603 81.5 7.4341 32.389 3.4151 48.591-16.232 65.437-31.399 26.922-80.824 39.267-132.28 33.04zm56.015-9.0395c65.907-8.905 95.961-40.398 84.397-88.438-2.664-11.067-8.9127-43.931-9.1925-48.347-0.0402-0.63414-0.91099 1.2042-1.9351 4.0853-5.3117 14.943-13.663 25.226-25.527 31.431-31.496 16.473-55.402 17.722-98.413 5.1407-26.562-7.7697-29.267-8.3829-39.672-8.9916-19.155-1.1206-40.392 9.1775-40.376 19.58 0.0176 12.012 15.302 62.569 21.288 70.418 9.0966 11.926 70.392 20.396 109.43 15.121zm10.428-97.385c40.749-6.9925 55.087-21.407 57.38-57.684 0.55086-8.7161 0.52968-8.8261-1.2351-6.4127-18.667 25.528-41.035 34.463-79.796 31.877-31.972-2.1332-46.724-10.966-81.632-48.881-18.459-20.049-36.143-24.363-53.686-13.096-1.4533 0.93334 0.80734 16.42 9.4362 64.644 5.4117 30.244 4.8437 28.33 7.658 25.8 1.2231-1.0995 5.5989-3.6306 9.7239-5.6247 21.399-10.345 32.062-10.121 67.548 1.4158 32.635 10.61 42.257 11.795 64.602 7.9609zm14.003-42.923c18.296-4.7777 28.086-13.214 37.298-32.14 5.544-11.391 5.5878-7.7948-0.52521-43.12-2.7904-16.125-6.9643-41.594-9.2755-56.6l-4.202-27.282-8.5158 6.2556c-30.632 22.502-58.87 31.158-115.43 35.385-41.422 3.0957-66.641 2.0989-79.152-3.1286-2.0103-0.83997-3.885-1.2974-4.1658-1.0165-0.4503 0.4503 7.7608 60.519 8.3848 61.339 0.13522 0.17769 4.0005-0.89538 8.5894-2.3846 23.982-7.7827 33.272-3.4723 64.084 29.735 29.489 31.781 64.49 42.99 102.91 32.956zm-108.65-125.1c6.05-0.51364 17.075-1.4484 24.5-2.0773 39.427-3.3394 66.039-12.424 92.597-31.61 14.402-10.404 13.698-9.5659 12.901-15.365l-0.69775-5.0733-2.6501 3.5383c-26.339 35.166-166.06 59.708-203.07 35.669l-2.4203-1.5722 0.66784 3.4766c2.4473 12.74 29.11 17.179 78.173 13.014zm5.0061-15.541c94.004-10.879 145.26-43.837 101.06-64.978-38.336-18.334-174.8 9.6778-185.61 38.099-8.3409 21.938 27.844 33.442 84.551 26.879zm-56.01-6.43c-17.522-4.2286-14.475-24.37 5.2104-34.439 18.253-9.337 61.692-4.0707 63.099 7.6498 1.4458 12.043-48.405 31.593-68.31 26.79zm32.063-12.532c33.526-8.4406 36.377-17.255 5.8869-18.198-21.509-0.66489-38.836 5.7231-42.274 15.585-2.7942 8.0155 10.994 9.0054 36.388 2.6122zm52.477-3.9915c-2.821-3.3991 1.914-7.6496 6.7956-6.1002 2.4951 0.79191 3.1331 2.4298 2.0654 5.3022-0.99058 2.6648-6.8721 3.1945-8.861 0.79799zm-4.79-16.21c-4.8727-1.9662 0.97242-9.2517 6.3415-7.9041 4.3585 1.0939 3.7881 5.7112-0.92693 7.5038-3.0007 1.1409-3.4896 1.177-5.4146 0.40028zm-458.06 284.7c-8.2625-5.2038-8.237-21.922 0.0693-45.452 2.2248-6.3024 5.6482-6.7092 9.1632-1.0887 1.0319 1.65 4.9532 6.6483 8.7139 11.107 17.622 20.894 18.455 30.797 2.9814 35.463-7.5057 2.2633-17.31 2.2497-20.928-0.029zm19.813-8.0426c6.5028-3.3175 5.4384-6.2846-7.8908-21.998-6.6923-7.8895-6.2406-7.9202-8.2808 0.56279-5.0264 20.9 1.1566 29.096 16.172 21.436zm660.58-5.6392c-1.4119-3.6793 4.5245-9.0552 9.0506-8.1961 2.6876 0.51017 2.9004 4.8852 0.36984 7.6015-2.5425 2.729-8.4581 3.1024-9.4204 0.59459zm-727.7-14.74c-17.774-6.3514-19.721-18.93-8.2843-53.494 11.078-33.479 7.1972-37.894-18.404-20.933-35.084 23.25-51.337 18.78-51.611-14.19-0.20988-25.228 6.3367-30 41.16-30 38.306 0 39.133-3.5813 6.2286-27-32.351-23.025-37.6-35.023-21.723-49.658 20.326-18.736 49.443-2.0332 58.818 33.742 9.1583 34.949 17.94 37.85 42.891 14.171 24.692-23.434 38.021-29.017 46.561-19.504 1.8521 2.0631 5.8616 6.4506 8.9099 9.75 15.319 16.58 8.6314 26.85-23.424 35.97-38.673 11.003-42.108 19.495-10.534 26.043 33.2 6.8847 50.454 33.607 35.975 55.717-9.0298 13.789-21.854 10.887-43.614-9.867-31.824-30.353-36.81-28.961-36.821 10.281-0.01 34.679-7.3784 45.673-26.123 38.975zm9.6279-8.0592c6.8021-2.8421 8.7882-10.192 10.015-37.06 1.9703-43.169 13.026-45.314 49.697-9.6438l13.796 13.42 5.8291-0.52857c29.151-2.6434 13.619-37.625-20.282-45.676-25.281-6.0043-34.153-17.479-22.412-28.989 4.3758-4.2893 6.2065-5.0775 34.118-14.688 27.687-9.5336 28.346-10.271 17.863-19.977-3.865-3.5784-7.3066-7.3863-7.648-8.462-2.2692-7.1495-23.421 2.5572-35.74 16.401-10.72 12.047-14.063 15.134-18.956 17.503-15.494 7.5005-29.637-5.2857-37.183-33.616-7.0884-26.612-24.357-40.756-40.851-33.46-17.327 7.6644-9.6961 28.095 15.356 41.115 17.367 9.0261 22.207 13.104 26.188 22.063 1.0903 2.4541 2.5942 5.0737 3.3418 5.8214 3.0831 3.0831 1.4314 5.227-8.8337 11.467-6.9622 4.2319-9.0051 4.4542-20.469 2.2276-28.262-5.4894-46.829 4.1399-45.084 23.382 1.5607 17.212 14.187 23.394 27.932 13.677 38.824-27.445 61.09-19.671 45.847 16.005-14.14 33.095-10.561 56.555 7.4772 49.018zm1880.2-29.23c-3.2492-3.2491 0.8576-8.449 10.805-13.681 12.92-6.795 12.349-9.0537-4.4716-17.704-25.041-12.878-21.105-19.342 14-22.994 16.064-1.6712 15.729-3.0135-4.4674-17.93-26.104-19.279-19.701-32.292 15.967-32.455 16.748-0.0767 20.064 0.48207 21.036 3.5451 1.3892 4.3768-1.1756 5.1584-12.577 3.8329-18.342-2.1324-30.959 0.28521-30.959 5.9322 0 3.1268 1.2169 4.369 18.603 18.989 3.9066 3.285 8.5191 8.1109 10.25 10.724 7.0321 10.617 3.3223 13.271-21.48 15.368-20.098 1.6993-20.365 2.276-4.6496 10.041 21.409 10.577 21.82 16.211 2.1526 29.474-4.0567 2.7356-7.7358 5.5481-8.1756 6.25-0.8401 1.3407-4.893 1.7502-6.0336 0.60957zm-1175.6-9.68c-3.2622-3.9308-0.0999-6.1329 12.563-8.7484 7.5818-1.566 11.311-0.72308 11.311 2.5567 0 3.1193-1.1224 3.777-9 5.2743-13.37 2.5412-13.519 2.5504-14.874 0.91737zm998.37-15.69c-49.292-7.5557-107.5-42.087-107.5-63.773 0-2.364-3.6694-4.3022-15.278-8.0697-29.697-9.6382-45.166-9.5215-58.702 0.44268-10.596 7.8001-13.791 7.8208-25.216 0.16274-16.5-11.08-6.2-36.72 14.8-36.72 1.758 0 1.7197-0.9082-0.2354-5.5874-6.1537-14.728 1.8392-26.288 18.845-27.254 15.7-0.89219 18.756 1.5899 18.756 15.231 0 18.718 2.3417 20.191 39.936 25.113 17.388 2.2768 16.047 2.6559 21.595-6.103 19.304-30.476 47.536-44.971 110.97-56.972 77.356-14.635 104.11 19.083 86.928 109.57-7.3486 38.713-52.6 61.985-104.93 53.964zm50.951-10.369c36.9-11.14 47.5-29.15 49.1-83.59 1.7242-55.554-17.544-72.536-71.64-63.138-74.879 13.009-98.32 25.639-117.67 63.406-1.0058 1.9629-3.7757 6.986-6.1555 11.163-3.6515 6.4086-4.2111 8.0989-3.5854 10.831 0.4078 1.7808 0.667 4.3866 0.576 5.7907-2.0546 31.695 101.12 70.082 149.29 55.542zm-125.25-68.898c-5.0129-3.6647-5.8167-8.8962-1.4619-9.5149 2.6561-0.37734 10.942 5.2453 11.824 8.0233 1.6608 5.2326-4.1084 6.0631-10.362 1.4916zm57.937-13.052c-3.5165-3.6281-3.7987-6.2009-0.8816-8.0375 3.8157-2.4022 11.534 5.3122 9.1393 9.1342-1.8504 2.9526-4.6997 2.5742-8.2577-1.0967zm75.9-12.4c-2.4642-0.80851-6-4.4692-6-6.2119 0-4.2968 5.411-5.346 8.8257-1.7112 3.7278 3.968 1.7785 9.4338-2.8257 7.9231zm-112.53-4.2876c-2.4976-4.8298-0.01-8.8895 4.5591-7.4394 2.2563 0.7161 4.3395 5.7395 3.4901 8.4157-1.0827 3.4112-6.0947 2.8033-8.0492-0.97626zm68.749-22.894c-3.4803-3.1788-3.7785-4.1496-2.1877-7.1221 1.4965-2.7963 4.3643-2.3809 7.8879 1.1427 6.406 6.406 0.9886 12.089-5.7002 5.9794zm60.35-5.6263c-1.895-1.8951-3.0032-5.8664-2.2121-7.9278 0.8728-2.2747 5.3001-1.8244 7.0825 0.72027 3.7814 5.3987-0.4368 11.641-4.8704 7.2076zm-261.96 59.495c16.412-11.292 46.318-10.239 77.141 2.7163 0.6875 0.28896 1.25-0.13113 1.25-0.93353 0-0.80239 1.125-4.0027 2.5-7.1118 3.3319-7.5341 3.5043-7.2431-4.75-8.019-41.807-3.9301-55.509-11.097-51.765-27.077 3.1899-13.615-11.91-21.237-21.523-10.864-5.1664 5.5746-0.9007 19.364 5.9901 19.364 4.1431 0 6.8252 2.9054 6.2058 6.7224-1.1158 6.8762-4.7653 8.0533-11.268 3.6344l-3.8895-2.6431-5 1.7705c-18.464 6.5379-22.414 18.402-8.4312 25.32 4.7675 2.3588 6.446 2.0019 13.54-2.8791zm-319.29 56.068c-10.147-4.0885-1.6765-20.85 22.898-45.308 10.176-10.128 12.712-11.371 15.177-7.4388 0.8157 1.3013 0.7536 2.293-0.2438 3.89-0.7362 1.1789-3.7946 9.3752-6.7963 18.214-10.154 29.9-16.74 36.402-31.035 30.642zm14.34-10.293c2.5271-4.887 9.4599-23.856 9.1064-24.916-0.5106-1.5318-15.421 14.628-17.8 19.292-2.5027 4.9057-1.6198 8.5212 2.2323 9.1416 3.4392 0.55396 4.7154-0.14074 6.4615-3.5173zm-475.1-8.47c-5.7582-3.1401-7.467-7.4676-3.4519-8.7419 4.6281-1.4689 15.706 6.237 13.878 9.6534-1.3767 2.5724-4.5454 2.2954-10.426-0.9115zm557.99-17.617c-5.7315-2.4976-10.059-10.75-11.451-21.835-0.8134-6.4781-0.5534-11.416 1.9468-36.977 3.0652-31.339-9.4702-29.579-60.805 8.5346-18.038 13.392-29.592 16.906-40.461 12.306-18.73-7.9277-2.8627-30.587 34.967-49.934 18.242-9.3292 17.08-11.371-16.591-29.151-36.775-19.419-43.025-28.927-26.27-39.961 18.456-12.154 42.145-11.151 70.317 2.978 6.151 3.0849 14.771 7.8336 19.155 10.553 12.082 7.4932 10.315 3.7281-7.8326-16.694-24.359-27.412-26.192-40.978-6.3329-46.875 23.137-6.871 40.82 17.763 42.52 59.235 0.7882 19.227 0.9532 19.464 6.9813 10.012 20.133-31.568 26.489-36.946 43.869-37.119 32.865-0.3284 29.037 27.229-6.2379 44.899-13.788 6.907-18.494 13.34-12.512 17.103 1.5125 0.9516 4.0752 2.8067 5.6948 4.1224 1.6197 1.3157 9.157 5.4806 16.75 9.2553 32.406 16.111 43.993 30.682 33.712 42.393-11.327 12.9-31.261 7.397-41.435-11.439-7.9939-14.8-13.258-19.408-24.579-21.514l-3.6083-0.6711-0.5728 28.835c-1.0049 50.588-5.5733 67.02-17.222 61.944zm5.5127-10.86c0.7579-2.0572 1.5245-15.178 2.0887-35.75 1.404-51.19 1.8126-53 11.965-53 11.584 0 18.098 5.1317 30.466 24 11.712 17.867 13.938 19.474 22.637 16.346 17.818-6.4073 11.704-16.161-19.571-31.219-42.009-20.227-43.932-30.266-9.3255-48.669 21.462-11.413 24.791-15.977 17.289-23.702-10.604-10.918-23.519-6.2901-35.249 12.631-24.41 39.374-31.588 38.636-36.812-3.7848-4.7831-38.845-9.8423-47.288-27.168-45.335-13.858 1.562-13.058 9.4392 2.8149 27.733 21.488 24.765 27.929 36.005 26.545 46.322-1.0424 7.7714-8.6836 8.7185-8.6836 1.0762 0-4.9434-38.293-26.342-54.41-30.405-14.01-3.5318-32.496-2.0767-42.09 3.3129-9.7669 5.487-4.8856 10.472 29 29.618 36.807 20.796 39.184 28.022 13.522 41.105-27.897 14.223-43.046 27.867-37.609 33.874 4.8631 5.3737 15.453 3.2545 27.363-5.4755 48.14-35.289 70.44-43.916 77.958-30.161 1.8589 3.4015 2.138 12.735 1.4569 48.733-0.2744 14.502 0.3673 18.747 3.5905 23.75 1.9576 3.0386 2.8075 2.8373 4.2213-1zm-509.01 8c-0.0128-0.73532-5.0724-13.975-7.0465-18.439-2.5494-5.7651-1.6585-8.6979 2.4633-8.109 4.1759 0.59665 13.144 22.218 10.525 25.374-0.95044 1.1452-5.9248 2.1283-5.9414 1.1742zm-916.49-8.61c-18.89-4.9802-10.557-27.49 10.167-27.462 8.0811 0.0109 14.978 3.3601 22.586 10.969 7.836 7.83 8.601 12.35 2.093 12.35-1.325 0-5.0954 0.90494-8.3786 2.011-6.5012 2.1901-21.62 3.4052-26.467 2.1272zm21.25-8.7532c6.1268-1.6815 6.3945-2.4412 2-5.6743-7.5609-5.5627-18.312-6.3501-23.258-1.7035-8.3764 7.8692 3.9188 12.136 21.258 7.3778zm928.45-5.59c-2.9879-2.9879-0.86061-10.8 2.941-10.8 2.3402 0 3.1971 1.6268 3.0412 5.7732-0.20122 5.3524-3.1656 7.8434-5.9822 5.0268zm-803.75-25.89c-1.3461-2.6031-1.4314-4.1509-0.53768-9.75 0.58435-3.6606 1.003-13.631 0.93027-22.156-0.22033-25.836 4.961-32.182 23.622-28.932 28.248 4.9192 22.216 43.18-8.3278 52.82-6.6531 2.0998-7.1385 2.4466-7.1385 5.1012 0 6.8671-5.5304 8.7544-8.5488 2.9175zm17.05-17.02c20.043-7.4248 23.381-32.619 4.7792-36.078-12.869-2.3933-15.831 2.4721-14.775 24.275 0.82233 16.98-0.32417 15.626 9.9957 11.803zm1029.8-11.555c-2.5377-1.024-0.5801-13.77 4.7909-31.193 5.122-16.616 2.8859-17.212-36.041-9.6132-47.007 9.1764-47.038 9.1534-30.967-23.412 20.809-42.167 18.586-45.855-20.033-33.236-34.222 11.182-43.687 11.021-46.556-0.79318-3.7634-15.496 17.615-70.265 25.026-64.115 2.2549 1.8714 2.0436 2.6843-4.0687 15.65-24.063 51.043-18.352 59.548 28.12 41.878 43.507-16.543 54.07 4.5813 23.02 46.037-12.71 16.97-10.378 18.914 15.572 12.986 26.446-6.0421 30.713-6.7771 40.053-6.8992 15.372-0.20087 17.513 3.7196 12.767 23.374-1.1289 4.675-2.9303 12.734-4.0033 17.91-2.3805 11.483-3.4821 13.122-7.6803 11.428zm-772.91-7.2953c-26.747-6.3731-12.385-45.235 22.196-60.058 11.632-4.9859 45.682-9.7564 52.089-7.2978 4.6768 1.7946 0.2921 8.3135-5.5918 8.3135-11.262 0-19.925 9.1345-29.164 30.751-11.266 26.359-14.363 29.279-30.87 29.103-3.025-0.0324-6.9219-0.39761-8.6598-0.8117zm16.11-8.01c5.2938-1.2246 7.5105-4.1878 13.112-17.527 6.1452-14.634 10.518-23.168 14.298-27.904 4.0203-5.0369 3.7408-5.1705-5.5086-2.6329-30.074 8.2507-51.219 32.023-40.807 45.879 1.8533 2.4664 12.414 3.6866 18.906 2.1847zm355.7 0.77c-1.8336-1.8336-1.4422-4.3564 1.1593-7.4733 1.2976-1.5547 3.1233-4.3166 4.0572-6.1376 2.217-4.3233 6.8943-4.3268 7.3935-0.005 0.78894 6.8294-8.9167 17.31-12.61 13.616zm91-6c-0.66-0.66-1.2-1.9549-1.2-2.8776 0-0.92265-0.69775-2.2566-1.5506-2.9644-2.5307-2.1003-1.4464-6.4005 1.706-6.7653 2.0378-0.23583 3.2588 0.48383 5.25 3.0944 3.85 5.05 3.11 10.71-1.41 10.71-0.88 0-2.14-0.54-2.8-1.2zm-603-11c-2.05-2.05-1.3566-3.8262 3.236-8.2897 10.934-10.627 5.768-18.862-20.338-32.424-28.01-14.553-29.2-18.265-10.42-32.438 15.9-11.993 13.19-13.417-27.68-14.559-28.35-0.792-31-1.791-31-11.675 0-12.731 21-34.418 33.32-34.418 6.0579 0 6.1003 5.9241 0.0533 7.4418-10.01 2.5124-27.329 21.199-25.638 27.663 0.64165 2.4537 1.1661 2.5401 23.583 3.8856 49.243 2.9557 56.77 7.6868 35.361 22.225-16.329 11.089-15.88 15.439 2.4814 24.046 34.113 15.991 42.726 31.55 25.586 46.221-4.3208 3.6984-6.5608 4.3056-8.5491 2.3172zm554.02-16.95c-52.78-4.71-74.74-43.916-51.22-91.409 19.973-40.325 62.138-57.549 82.925-33.874 5.1689 5.8871-0.39867 10.815-5.7651 5.1029-23.63-25.156-75.02 14.439-78.79 60.706-4.65 57.214 93.67 73.304 119.98 19.624 19.7-40.18-12.43-63.359-53.35-38.498-22.951 13.942-22.457 42.079 0.79275 45.197 14.55 1.9516 25.267-19.555 11.016-22.107-6.7-1.198-5.98-7.592 0.84-7.592 15.871 0 19.173 20.888 5.2856 33.435-14.82 13.39-42.49-5.47-42.42-28.919 0.12-36.474 73.23-52.652 88.22-19.521 17.74 39.213-25.372 82.507-77.522 77.85zm124.49-14.268c-7.2536-2.633-11.86-6.3882-11.514-9.3862 0.4217-3.653 3.6107-3.9782 8.5338-0.87044 2.1297 1.3444 6.1009 3.0739 8.8248 3.8432 4.5094 1.2736 4.9526 1.6642 4.9526 4.3653 0 3.5661-4.3449 4.3903-10.797 2.0481zm637.59-14.83c-0.4257-0.6875-2.4611-4.7375-4.5231-9s-4.0015-7.75-4.31-7.75-3.6885 1.575-7.511 3.5c-7.8333 3.9448-11.568 4.4368-12.455 1.6409-1.038-3.2704 0.3565-4.6923 8.4924-8.659 9.5144-4.6388 9.3536-2.9752 1.8871-19.519-7.5237-16.671-6.5956-15.832-13.895-12.556-6.3787 2.8626-9.4874 2.7727-10.29-0.29757-0.7965-3.0459 0.9326-4.7421 7.2378-7.1001 3.3129-1.2389 6.0235-2.6104 6.0235-3.0478 0-1.3-3.3008-8.6186-10.473-23.22-5.5581-11.316-6.5379-14.023-5.52-15.25 3.6393-4.3851 6.6383-0.80271 17.794 21.255 3.6844 7.2852 7.112 13.248 7.6168 13.25 0.8931 0.0041 35.784-13.866 36.382-14.463 0.1649-0.16457-1.7716-4.9079-4.3032-10.541-5.3-11.687-5.5-14.491-1.1-14.491 2.6116 0 10.93 12.533 13.876 20.908 0.1758 0.49962 3.0771-0.02283 6.4474-1.161 6.7254-2.2712 9.8304-1.4823 9.1253 2.3187-0.2977 1.605-5.8365 5.2598-10.15 6.6978-0.5716 0.19052 1.2139 5.641 4.0257 12.289 2.779 6.5708 6.1132 14.79 7.4093 18.264 2.3018 6.1708 2.4263 6.3018 5.3566 5.6376 5.1532-1.1681 6.7017-1.0116 7.8639 0.79483 1.5635 2.4302-0.2041 4.9519-4.1962 5.9864-3.4069 0.8828-3.7768 1.757-2.0827 4.9225 0.5968 1.1151 0.8061 3.1389 0.4652 4.4973-0.9994 3.9818-5.5665 2.8665-7.8062-1.9062-2.0997-4.4744-2.1972-4.4819-15.744-1.2162-15.078 3.6348-27 7.6731-27 9.1455 0 2.3339 4.3832 10.321 5.6641 10.321 2.2634 0 3.3975 3.5248 2.2205 6.9013-1.1447 3.2834-4.9808 4.3677-6.5405 1.8487zm5.9597-31.114c5.6079-1.8503 14.096-4.1627 18.861-5.1385 4.7658-0.9758 9.1714-2.0872 9.7903-2.4697 0.8717-0.53873-12.442-32.641-14.442-34.823-0.2894-0.31583-24.812 9.2538-32.84 12.815-2.7057 1.2004-4.6249 2.6549-4.3681 3.3106 0.252 0.64324 2.8075 7.2445 5.6789 14.67 5.5088 14.245 5.8425 15 6.6281 15 0.2722 0 5.0831-1.5139 10.691-3.3643zm-1183.1 10.534c-11.85-4.227-17.03-17.241-10.28-25.819 19.98-25.402 115.06-11.986 115.06 16.234 0 8.5409-3.2223 10.918-9.1925 6.7819-5.526-3.8286-14.36-3.6834-40.808 0.67075-25.25 4.157-46.764 4.9942-54.784 2.1318zm37.78-8.309c29.585-4.3145 36.811-5.0378 46.75-4.6795 11.876 0.42808 12.025 0.28506 4.8598-4.6499-26.73-18.413-93.61-17.768-93.61 0.902 0 11.511 8.7748 13.272 42 8.4267zm1394.2 6.939c-0.66-0.66-1.2-2.4023-1.2-3.8717 0-2.8264-4.6968-10.39-17.343-27.928-25.892-35.908-25.114-51.624 2.6105-52.801 25.87-1.0983 30.912 10.475 24.676 56.645-1.1912 8.8204-1.857 17.631-1.5249 20.178 0.8942 6.858-3.4539 11.543-7.2187 7.7784zm2.2633-41.824c3-30.801 0-36.476-19.8-36.476-16.68 0-14.4 11.564 9.5886 48.611l7.2122 11.139 0.6738-3.375c0.3706-1.8563 1.4178-10.811 2.3271-19.899zm60.179 37.333c-0.3412-0.34124-2.2639-0.88791-4.2726-1.2148-7.4871-1.2185-6.0236-7.4235 3.2331-13.708 2.338-1.5874 5.0045-4.4611 5.9255-6.3861 15.21-31.788 36.247-42.267 48.653-24.236 9.933 14.437 3.7489 21.361-26.182 29.312-8.525 2.2647-16.25 4.3418-17.168 4.6159-0.9173 0.2741-2.6122 2.6937-3.7664 5.3769-1.9859 4.6164-5.0604 7.6033-6.4233 6.2404zm41.358-27.794c9.1379-2.8434 10.452-8.3259 3.6311-15.147-4.8769-4.8769-6.9292-5.2776-12.493-2.4391-4.9 2.492-18.2 19.192-18.2 22.855 0 0.77419 20.329-3.1925 27-5.2685z"/>
</svg>
